<svg width="32" height="33" viewBox="0 0 32 33" fill="none" xmlns="http://www.w3.org/2000/svg">
<path d="M2.8125 14.0366H11.7992L15.2746 17.512C15.4057 17.6432 15.5727 17.7325 15.7546 17.7687C15.9365 17.8049 16.125 17.7863 16.2963 17.7152C16.4676 17.6443 16.614 17.5241 16.7171 17.37C16.8201 17.2158 16.8751 17.0345 16.8751 16.8491V14.0366H19.0626C20.6134 14.0366 21.8751 12.7749 21.8751 11.2241V3.72412C21.8751 2.17331 20.6134 0.911621 19.0626 0.911621H2.8125C1.26169 0.911621 0 2.17331 0 3.72412V11.2241C0 12.7749 1.26169 14.0366 2.8125 14.0366ZM4.6875 4.66162H17.1875C17.7052 4.66162 18.125 5.08137 18.125 5.59912C18.125 6.11687 17.7052 6.53662 17.1875 6.53662H4.6875C4.16975 6.53662 3.75 6.11687 3.75 5.59912C3.75 5.08137 4.16975 4.66162 4.6875 4.66162ZM4.6875 8.41162H17.1875C17.7052 8.41162 18.125 8.83137 18.125 9.34912C18.125 9.86687 17.7052 10.2866 17.1875 10.2866H4.6875C4.16975 10.2866 3.75 9.86687 3.75 9.34912C3.75 8.83137 4.16975 8.41162 4.6875 8.41162ZM12.8125 22.1616H11.7807C11.6606 21.5742 11.4282 21.0154 11.0964 20.516L11.8279 19.7846C12.1941 19.4185 12.1941 18.8249 11.8279 18.4587C11.4618 18.0926 10.8682 18.0926 10.5021 18.4587L9.77063 19.1902C9.27124 18.8584 8.7125 18.6261 8.12506 18.506V17.4741C8.12506 16.9564 7.70531 16.5366 7.18756 16.5366C6.66981 16.5366 6.25006 16.9564 6.25006 17.4741V18.5059C5.6525 18.6277 5.09631 18.8641 4.6045 19.1902L3.873 18.4587C3.50694 18.0926 2.91331 18.0926 2.54719 18.4587C2.18113 18.8247 2.18113 19.4184 2.54719 19.7845L3.27869 20.5159C2.94684 21.0153 2.71451 21.5741 2.59444 22.1616H1.5625C1.04475 22.1616 0.625 22.5813 0.625 23.0991C0.625 23.6168 1.04475 24.0366 1.5625 24.0366H2.59431C2.71444 24.624 2.94677 25.1828 3.27856 25.6822L2.54706 26.4136C2.18094 26.7797 2.18094 27.3733 2.54706 27.7394C2.63402 27.8266 2.73735 27.8958 2.85112 27.9429C2.96489 27.99 3.08685 28.0142 3.21 28.0141C3.44988 28.0141 3.68987 27.9225 3.87287 27.7394L4.60437 27.0079C5.10376 27.3398 5.6625 27.5721 6.24994 27.6922V28.7241C6.24994 29.2419 6.66969 29.6616 7.18744 29.6616C7.70519 29.6616 8.12494 29.2419 8.12494 28.7241V27.6923C8.7225 27.5706 9.27869 27.3341 9.7705 27.0081L10.502 27.7396C10.6851 27.9226 10.925 28.0142 11.1649 28.0142C11.4047 28.0142 11.6447 27.9226 11.8278 27.7396C12.1939 27.3735 12.1939 26.7799 11.8278 26.4137L11.0963 25.6823C11.4282 25.1829 11.6605 24.6241 11.7806 24.0367H12.8125C13.3302 24.0367 13.75 23.6169 13.75 23.0992C13.75 22.5814 13.3302 22.1616 12.8125 22.1616ZM7.1875 24.0366C6.66975 24.0366 6.25 23.6169 6.25 23.0991C6.25 22.5814 6.66975 22.1616 7.1875 22.1616C7.70525 22.1616 8.125 22.5814 8.125 23.0991C8.125 23.6169 7.70525 24.0366 7.1875 24.0366ZM31.5311 25.7884L30.7624 25.3446C30.7988 25.0526 30.8172 24.7616 30.8172 24.4741C30.8172 24.1866 30.7988 23.8956 30.7624 23.6037L31.5311 23.1598C31.9795 22.9009 32.1331 22.3276 31.8743 21.8792L29.9993 18.6316C29.7404 18.1832 29.167 18.0295 28.7186 18.2884L27.9466 18.7342C27.4829 18.3818 26.9777 18.088 26.4422 17.8592V16.9741C26.4422 16.4564 26.0224 16.0366 25.5047 16.0366H21.7547C21.2369 16.0366 20.8172 16.4564 20.8172 16.9741V17.8591C20.2817 18.0879 19.7764 18.3818 19.3128 18.7341L18.5408 18.2884C18.0924 18.0295 17.5191 18.1831 17.2602 18.6315L15.3852 21.8791C15.1263 22.3275 15.2799 22.9009 15.7283 23.1597L16.4971 23.6036C16.4606 23.8956 16.4422 24.1866 16.4422 24.4741C16.4422 24.7616 16.4606 25.0526 16.4971 25.3445L15.7283 25.7884C15.2799 26.0472 15.1263 26.6206 15.3852 27.069L17.2602 30.3166C17.5191 30.7651 18.0924 30.9187 18.5409 30.6597L19.3129 30.214C19.781 30.5689 20.2838 30.8614 20.8172 31.089V31.9741C20.8172 32.4919 21.237 32.9116 21.7547 32.9116H25.5047C26.0225 32.9116 26.4422 32.4919 26.4422 31.9741V31.0891C26.9757 30.8615 27.4785 30.569 27.9466 30.2141L28.7186 30.6598C29.167 30.9187 29.7404 30.7651 29.9993 30.3167L31.8743 27.0691C32.1331 26.6207 31.9795 26.0473 31.5311 25.7884ZM23.6297 27.2866C22.0789 27.2866 20.8172 26.0249 20.8172 24.4741C20.8172 22.9233 22.0789 21.6616 23.6297 21.6616C25.1805 21.6616 26.4422 22.9233 26.4422 24.4741C26.4422 26.0249 25.1805 27.2866 23.6297 27.2866Z" fill="#1C5DAA"/>
</svg>
