<svg width="33" height="33" viewBox="0 0 33 33" fill="none" xmlns="http://www.w3.org/2000/svg">
<path d="M26.4438 10.4442C25.5651 10.443 24.7228 10.0934 24.1015 9.47213C23.4803 8.85084 23.1307 8.00854 23.1295 7.12991V0.911621H10.1466C7.62091 0.911621 5.5752 2.95734 5.5752 5.48305V9.64076C6.31583 9.4221 7.0841 9.31125 7.85634 9.31162C9.99234 9.31162 11.9981 10.1413 13.5043 11.6465C16.6186 14.7631 16.6198 19.8305 13.5066 22.9459C12.766 23.6896 11.8854 24.2791 10.9155 24.6802C9.94565 25.0814 8.90588 25.2863 7.85634 25.2831C7.07805 25.2831 6.3112 25.1688 5.5752 24.9471V28.3402C5.5752 30.8659 7.62091 32.9116 10.1466 32.9116H28.0781C30.6038 32.9116 32.6495 30.8659 32.6495 28.3402V10.4442H26.4438ZM19.6872 22.6602H16.7615C16.4887 22.6602 16.2271 22.5518 16.0342 22.3589C15.8413 22.166 15.7329 21.9044 15.7329 21.6316C15.7329 21.3588 15.8413 21.0972 16.0342 20.9043C16.2271 20.7114 16.4887 20.6031 16.7615 20.6031H19.6872C19.96 20.6031 20.2216 20.7114 20.4145 20.9043C20.6074 21.0972 20.7158 21.3588 20.7158 21.6316C20.7158 21.9044 20.6074 22.166 20.4145 22.3589C20.2216 22.5518 19.96 22.6602 19.6872 22.6602ZM25.7443 18.7871H17.8701C17.5973 18.7871 17.3356 18.6787 17.1427 18.4858C16.9498 18.2929 16.8415 18.0313 16.8415 17.7585C16.8415 17.4857 16.9498 17.2241 17.1427 17.0312C17.3356 16.8383 17.5973 16.7299 17.8701 16.7299H25.7443C26.0171 16.7299 26.2788 16.8383 26.4716 17.0312C26.6645 17.2241 26.7729 17.4857 26.7729 17.7585C26.7729 18.0313 26.6645 18.2929 26.4716 18.4858C26.2788 18.6787 26.0171 18.7871 25.7443 18.7871Z" fill="#1C5DAA"/>
<path d="M7.85662 23.2248C8.63555 23.2261 9.40706 23.0735 10.1269 22.7758C10.8466 22.4781 11.5005 22.0411 12.0509 21.4899C13.1615 20.3763 13.7851 18.8678 13.7851 17.295C13.7851 15.7223 13.1615 14.2138 12.0509 13.1002C10.9371 11.9905 9.42887 11.3675 7.85662 11.3675C6.28437 11.3675 4.77618 11.9905 3.66234 13.1002C1.59948 15.1642 1.39034 18.3756 3.00862 20.6888L0.405192 23.2922C0.30628 23.3869 0.22727 23.5004 0.172794 23.626C0.118319 23.7516 0.0894747 23.8869 0.0879541 24.0238C0.0864335 24.1607 0.112267 24.2965 0.163939 24.4233C0.215611 24.5501 0.292082 24.6654 0.388867 24.7622C0.485651 24.8591 0.600802 24.9356 0.727566 24.9874C0.85433 25.0392 0.990155 25.0651 1.12708 25.0637C1.264 25.0623 1.39926 25.0336 1.52493 24.9792C1.6506 24.9248 1.76414 24.8459 1.85891 24.747L4.46348 22.1425C5.45595 22.8443 6.64106 23.2223 7.85662 23.2248ZM5.11605 14.5562C5.84306 13.8305 6.82828 13.423 7.85548 13.423C8.88267 13.423 9.8679 13.8305 10.5949 14.5562C11.3206 15.2832 11.7281 16.2684 11.7281 17.2956C11.7281 18.3228 11.3206 19.308 10.5949 20.035C9.86771 20.7608 8.88229 21.1684 7.85491 21.1684C6.82752 21.1684 5.84211 20.7608 5.11491 20.035C4.39023 19.3074 3.98345 18.3223 3.98366 17.2954C3.98388 16.2685 4.39107 15.2835 5.11605 14.5562ZM25.1881 7.12876C25.1881 7.82133 25.7515 8.38591 26.4452 8.38591H32.6509V8.04305C32.6509 7.12876 32.2852 6.26019 31.6452 5.62019L27.9423 1.91734C27.2996 1.274 26.4277 0.912244 25.5183 0.911621H25.1881V7.12876Z" fill="#1C5DAA"/>
</svg>
