<svg width="52" height="49" viewBox="0 0 52 49" fill="none" xmlns="http://www.w3.org/2000/svg">
<g clip-path="url(#clip0_1_2740)">
<path d="M12.3431 14.4058C10.3124 14.4058 8.36487 15.2125 6.92893 16.6484L2.24264 21.3347C0.8067 22.7706 0 24.7182 0 26.7489C0 30.9777 3.42809 34.4058 7.65687 34.4058C9.6876 34.4058 11.6351 33.599 13.0711 32.1631L16.3126 28.9216C16.3126 28.9215 16.3127 28.9216 16.3126 28.9216L25.7573 19.4768C26.4431 18.791 27.3733 18.4058 28.3431 18.4058C29.9669 18.4058 31.3435 19.464 31.8207 20.9285L34.8015 17.9477C33.4417 15.818 31.0573 14.4058 28.3431 14.4058C26.3124 14.4058 24.3649 15.2125 22.9289 16.6484L10.2427 29.3347C9.55687 30.0205 8.62673 30.4058 7.65687 30.4058C5.63723 30.4058 4 28.7686 4 26.7489C4 25.779 4.38527 24.8489 5.07107 24.1631L9.75733 19.4768C10.4431 18.791 11.3733 18.4058 12.3431 18.4058C13.9669 18.4058 15.3435 19.4641 15.8207 20.9286L18.8015 17.9478C17.4417 15.818 15.0574 14.4058 12.3431 14.4058Z" fill="#394149"/>
<path d="M26.2431 29.3347C25.5573 30.0205 24.6272 30.4058 23.6573 30.4058C22.0338 30.4058 20.6573 29.3478 20.1799 27.8836L17.1992 30.8642C18.5591 32.9937 20.9433 34.4058 23.6573 34.4058C25.688 34.4058 27.6356 33.599 29.0715 32.1631L41.7577 19.4768C42.4436 18.791 43.3737 18.4058 44.3435 18.4058C46.3632 18.4058 48.0004 20.043 48.0004 22.0626C48.0004 23.0325 47.6152 23.9626 46.9293 24.6484L42.2431 29.3347C41.5573 30.0205 40.6271 30.4058 39.6573 30.4058C38.0336 30.4058 36.6571 29.3476 36.1798 27.8832L33.1991 30.864C34.5589 32.9936 36.9431 34.4058 39.6573 34.4058C41.688 34.4058 43.6355 33.599 45.0715 32.1631L49.7577 27.4768C51.1937 26.0409 52.0004 24.0934 52.0004 22.0626C52.0004 17.8339 48.5723 14.4058 44.3435 14.4058C42.3128 14.4058 40.3653 15.2125 38.9293 16.6484L26.2431 29.3347Z" fill="#394149"/>
</g>
<defs>
<clipPath id="clip0_1_2740">
<rect width="52" height="20" fill="white" transform="translate(0 14.4058)"/>
</clipPath>
</defs>
</svg>
