<svg width="48" height="49" viewBox="0 0 48 49" fill="none" xmlns="http://www.w3.org/2000/svg">
<g clip-path="url(#clip0_1_2736)">
<path d="M42.4375 12.2495C42.4375 12.7155 42.8199 13.0933 43.2917 13.0933H44.1458C44.6176 13.0933 45 12.7155 45 12.2495C45 11.7835 44.6176 11.4058 44.1458 11.4058H43.2917C42.8199 11.4058 42.4375 11.7835 42.4375 12.2495Z" fill="#212326"/>
<path d="M17.6667 38.4058H21.8161L20.6081 37.2125C20.2877 36.8961 19.8532 36.7183 19.4001 36.7183H17.6667C11.0623 36.7183 5.70833 31.4296 5.70833 24.9058C5.70833 18.3819 11.0623 13.0933 17.6667 13.0933H31.3333C37.9378 13.0933 43.2917 18.3819 43.2917 24.9058C43.2917 31.4296 37.9378 36.7183 31.3333 36.7183H26.2209C25.5413 36.7183 24.8895 36.4516 24.4089 35.9769L22.9937 34.5789C22.1928 33.7878 21.1064 33.3433 19.9737 33.3433H17.6667C12.9492 33.3433 9.125 29.5657 9.125 24.9058C9.125 20.2458 12.9492 16.4683 17.6667 16.4683H31.3333C36.0508 16.4683 39.875 20.2458 39.875 24.9058C39.875 29.5657 36.0508 33.3433 31.3333 33.3433H28.0507C27.371 33.3433 26.7193 33.0766 26.2387 32.6019L24.8234 31.2039C24.0225 30.4128 22.9362 29.9683 21.8035 29.9683H17.6667C14.8362 29.9683 12.5417 27.7017 12.5417 24.9058C12.5417 22.1098 14.8362 19.8433 17.6667 19.8433H31.3333C34.1638 19.8433 36.4583 22.1098 36.4583 24.9058C36.4583 27.6676 34.2194 29.9129 31.4367 29.9673L31.4361 29.9683H30.1861C29.5064 29.9683 28.8547 29.7016 28.3741 29.2269L26.9588 27.8289C26.3017 27.1797 25.4524 26.764 24.5429 26.6357L24.5 26.5933H17.6667C16.7232 26.5933 15.9583 25.8377 15.9583 24.9058C15.9583 23.9738 16.7232 23.2183 17.6667 23.2183H31.3333C32.2768 23.2183 33.0417 23.9738 33.0417 24.9058C33.0417 25.8377 32.2768 26.5933 31.3333 26.5933H27.9167L29.1247 27.7865C29.445 28.103 29.8795 28.2808 30.3326 28.2808H31.3333C33.2203 28.2808 34.75 26.7697 34.75 24.9058C34.75 23.0418 33.2203 21.5308 31.3333 21.5308H17.6667C15.7797 21.5308 14.25 23.0418 14.25 24.9058C14.25 26.7697 15.7797 28.2808 17.6667 28.2808H23.9389C24.6186 28.2808 25.2703 28.5475 25.7509 29.0221L27.1662 30.4201C27.9671 31.2113 29.0534 31.6558 30.1861 31.6558H31.7604V31.6428C35.3354 31.425 38.1667 28.492 38.1667 24.9058C38.1667 21.1779 35.1072 18.1558 31.3333 18.1558H17.6667C13.8928 18.1558 10.8333 21.1779 10.8333 24.9058C10.8333 28.6337 13.8928 31.6558 17.6667 31.6558H21.8035C22.4831 31.6558 23.1349 31.9225 23.6155 32.3971L25.0307 33.7951C25.8317 34.5863 26.918 35.0308 28.0507 35.0308H31.3333C36.9943 35.0308 41.5833 30.4977 41.5833 24.9058C41.5833 19.3139 36.9943 14.7808 31.3333 14.7808H17.6667C12.0057 14.7808 7.41667 19.3139 7.41667 24.9058C7.41667 30.4977 12.0057 35.0308 17.6667 35.0308H19.9737C20.6534 35.0308 21.3051 35.2975 21.7857 35.7721L23.201 37.1701C24.0019 37.9613 25.0882 38.4058 26.2209 38.4058H31.3333C38.8812 38.4058 45 32.3616 45 24.9058C45 17.4499 38.8812 11.4058 31.3333 11.4058L17.6667 11.4058C10.1188 11.4058 4 17.4499 4 24.9058C4 32.3616 10.1188 38.4058 17.6667 38.4058Z" fill="#212326"/>
</g>
<defs>
<clipPath id="clip0_1_2736">
<rect width="41" height="27" fill="white" transform="translate(4 11.4058)"/>
</clipPath>
</defs>
</svg>
