<svg width="55" height="49" viewBox="0 0 55 49" fill="none" xmlns="http://www.w3.org/2000/svg">
<g clip-path="url(#clip0_1_2744)">
<path d="M54.9957 20.0754C55.0015 20.0337 55.0015 19.9916 54.9957 19.9499C55.0011 19.9159 55.0011 19.8812 54.9957 19.8472L54.5883 16.9145C54.5295 16.5637 54.3723 16.2357 54.1344 15.9674L54.0645 15.8875L53.9365 15.762L46.8829 9.80544L47.0808 9.99944C46.9189 9.80956 46.7157 9.65768 46.4861 9.55498C46.2565 9.45229 46.0062 9.4014 45.7539 9.40606H43.6122C43.2639 9.3993 42.9236 9.50785 42.6461 9.71416C42.3547 9.50909 42.0038 9.40109 41.6451 9.40606H39.5034C39.2225 9.40159 38.9454 9.46994 38.7001 9.60419C38.4549 9.73844 38.2501 9.93384 38.1067 10.1706C37.8855 10.5087 37.8023 10.9162 37.8738 11.3117L38.1416 13.1603C37.9642 13.0617 37.7635 13.0106 37.5596 13.012H27.1887C26.8166 13.0143 26.4531 13.1212 26.1411 13.32C25.8395 13.5052 25.5973 13.7702 25.4428 14.0846L24.6396 13.4113C24.3235 13.1246 23.9063 12.9692 23.4757 12.9777H7.20353C6.83012 12.9844 6.46501 13.0867 6.14436 13.2744C5.70569 13.5261 5.38421 13.9354 5.24809 14.4155L0.0801167 31.361C-0.0164452 31.6402 -0.0259442 31.9413 0.0528362 32.2259C0.131617 32.5103 0.295109 32.7655 0.522426 32.9585C0.581658 33.0077 0.643851 33.0535 0.708664 33.0954C0.708664 33.0954 0.603891 33.0269 0.545692 32.9699L7.59931 38.9379C7.89769 39.2072 8.28781 39.3578 8.69336 39.3601H25.0936C25.4681 39.3506 25.8335 39.2443 26.1528 39.052C26.3334 38.9552 26.495 38.8277 26.63 38.6754L26.6882 38.5955L26.7813 38.4815L26.8512 38.3559L27.6194 39.0064C27.9135 39.265 28.2951 39.4073 28.6902 39.4058H45.1253C45.4994 39.3935 45.8641 39.2875 46.1845 39.0977C46.361 38.995 46.5217 38.8682 46.6618 38.7211L46.7199 38.6412L46.813 38.5271C46.8625 38.4549 46.9055 38.3786 46.941 38.2988C46.9791 38.2297 47.0103 38.1571 47.0342 38.0821L51.7482 22.6087V22.4717C51.754 22.4186 51.754 22.3651 51.7482 22.312V22.2093C51.7539 22.1753 51.7539 22.1406 51.7482 22.1066C51.7535 22.0344 51.7535 21.962 51.7482 21.8897H53.2614C53.393 21.9016 53.5255 21.9016 53.6571 21.8897H53.7619C53.8471 21.8648 53.9291 21.8303 54.0063 21.7871H54.1227L54.3322 21.6273L54.4253 21.5588L54.5883 21.3534V21.285L54.7047 21.091C54.6982 21.0533 54.6982 21.0146 54.7047 20.9769C54.6985 20.9584 54.6985 20.9384 54.7047 20.9198C54.7294 20.8529 54.7489 20.7842 54.7629 20.7144C54.7575 20.6919 54.7575 20.6684 54.7629 20.6459C54.7572 20.612 54.7572 20.5772 54.7629 20.5433C54.7629 20.5433 54.9957 20.0982 54.9957 20.0754Z" fill="black"/>
<path d="M23.9532 14.2787C24.015 14.3334 24.0581 14.4055 24.0768 14.4851C24.0956 14.5646 24.089 14.6479 24.058 14.7237L18.9017 31.6577C18.8367 31.8426 18.7039 31.9972 18.5292 32.0914C18.387 32.1846 18.2225 32.2396 18.0519 32.2511H1.66341C1.52345 32.2445 1.39085 32.1877 1.29094 32.0914C1.2315 32.0374 1.18978 31.9674 1.17112 31.8902C1.15246 31.813 1.15771 31.732 1.18618 31.6577L6.35416 14.7237C6.4137 14.5365 6.54237 14.3778 6.71498 14.2787C6.85949 14.1921 7.02324 14.1412 7.19221 14.1303H23.5807C23.7196 14.1316 23.8527 14.1847 23.9532 14.2787ZM15.3981 28.2458L18.4826 18.1356H9.84606L6.77317 28.2458H15.3981ZM39.5968 14.4498C39.6527 14.5135 39.7226 14.5641 39.8012 14.5976C39.8798 14.6312 39.965 14.647 40.0508 14.6438H42.1808C42.2619 14.6446 42.3418 14.6251 42.4132 14.5872C42.4844 14.5492 42.5446 14.4941 42.5882 14.427C42.626 14.3746 42.6527 14.3153 42.6667 14.2525C42.6807 14.1898 42.6817 14.125 42.6696 14.0619L42.2506 11.0493C42.2107 10.9099 42.1391 10.7812 42.0411 10.6728C41.9852 10.6091 41.9153 10.5585 41.8367 10.525C41.7581 10.4914 41.6728 10.4756 41.5872 10.4788H39.4571C39.376 10.478 39.296 10.4975 39.2248 10.5354C39.1535 10.5734 39.0932 10.6285 39.0498 10.6956C38.9683 10.8553 38.9333 10.958 38.9683 11.0493L39.3989 14.0619C39.421 14.2085 39.4904 14.3445 39.5968 14.4498ZM46.3594 11.0265C46.3195 10.8871 46.2478 10.7583 46.1499 10.6499C46.0963 10.5865 46.0285 10.536 45.9518 10.5023C45.8751 10.4687 45.7915 10.4528 45.7076 10.456H43.5659C43.4861 10.4537 43.4072 10.4727 43.3375 10.5109C43.2679 10.549 43.2101 10.605 43.1702 10.6728C43.0927 10.774 43.0592 10.9012 43.0771 11.0265L43.5077 14.039C43.5347 14.1842 43.6033 14.3187 43.7056 14.427C43.7625 14.4895 43.8325 14.5391 43.9109 14.5726C43.9893 14.6061 44.074 14.6226 44.1595 14.621H46.3012C46.3808 14.622 46.4592 14.6025 46.5286 14.5645C46.5981 14.5264 46.6562 14.4712 46.697 14.4042C46.7375 14.3531 46.7657 14.2938 46.7799 14.2306C46.794 14.1675 46.7935 14.102 46.7784 14.039L46.3594 11.0265ZM37.7228 15.5909L37.5133 14.1075H27.189C27.0269 14.1163 26.8701 14.1675 26.735 14.2558C26.6493 14.3017 26.5747 14.3652 26.5164 14.442C26.4582 14.5189 26.4176 14.6072 26.3975 14.7009L25.5362 17.5308C25.5018 17.6015 25.49 17.6809 25.5025 17.7583C25.515 17.8357 25.5511 17.9075 25.606 17.9644C25.7042 18.0549 25.8323 18.1076 25.9669 18.1128H38.5143L35.4298 28.223H22.9173C22.7559 28.2266 22.5988 28.274 22.4634 28.3599C22.2987 28.4624 22.1785 28.6209 22.1258 28.8049L21.2528 31.6349C21.2243 31.7075 21.2168 31.7864 21.2312 31.8629C21.2456 31.9395 21.2812 32.0106 21.3343 32.0685C21.4294 32.165 21.5585 32.2222 21.6951 32.2282H38.1302C38.3002 32.2139 38.464 32.1591 38.6074 32.0685C38.7793 31.9738 38.9082 31.819 38.9683 31.6349L43.6939 16.1615H38.3746C38.2902 16.1631 38.2064 16.1478 38.1284 16.1164C38.0503 16.085 37.9796 16.0382 37.9207 15.9789C37.8245 15.8754 37.7564 15.7498 37.7228 15.6138V15.5909Z" fill="white"/>
</g>
<defs>
<clipPath id="clip0_1_2744">
<rect width="55" height="30" fill="white" transform="translate(0 9.40576)"/>
</clipPath>
</defs>
</svg>
