<svg width="35" height="33" viewBox="0 0 35 33" fill="none" xmlns="http://www.w3.org/2000/svg">
<path d="M18.322 32.9116H1.56836C0.69879 32.9116 -0.054833 32.216 0.00313803 31.2884L0.0611091 27.1145C0.177051 25.5493 0.988645 24.158 2.26401 23.2305L5.74227 20.6797C6.14807 20.3899 6.66981 20.5058 6.95966 20.9116C7.59734 21.8971 8.69879 22.5348 9.97415 22.5348C11.2495 22.5348 12.351 21.8971 12.9886 20.9116C13.2785 20.5058 13.8002 20.3899 14.206 20.6797L17.6843 23.2305C18.9597 24.158 19.7713 25.5493 19.8872 27.1145L19.9452 31.2884C19.9452 32.216 19.2495 32.9116 18.322 32.9116ZM15.6553 11.3464H15.5394C15.3655 8.44785 12.9307 6.12901 9.97415 6.12901C9.62633 6.12901 9.33647 6.18698 8.98865 6.18698C8.00314 6.07104 7.13357 6.07104 6.66981 6.30293C6.0901 6.65075 5.22053 6.70872 4.58285 6.70872C4.06111 6.70872 3.65531 7.23046 3.82923 7.7522L4.58285 10.187C4.46691 10.5348 4.40894 10.9406 4.40894 11.2884H4.29299C4.00314 11.3464 3.82923 11.9841 4.00314 12.7377C4.11908 13.4334 4.52488 14.0131 4.81473 13.9551C5.62633 16.5058 7.65531 19.0566 9.97415 19.0566C12.351 19.0566 14.322 16.5058 15.1336 13.9551C15.4234 13.9551 15.8292 13.4334 15.9452 12.7377C16.1191 12.0421 16.0031 11.4044 15.6553 11.3464ZM33.0466 0.911621H20.0611C19.4814 0.911621 19.0176 1.37539 19.0176 1.9551V15.1725C19.0176 15.6363 19.4814 15.9261 19.8872 15.7522L25.1626 13.4913C25.3365 13.4334 25.5104 13.3754 25.7423 13.3754H33.0466C33.6263 13.3754 34.0901 12.9116 34.0901 12.3319V1.9551C34.0901 1.37539 33.6263 0.911621 33.0466 0.911621ZM30.7857 6.24496L28.9307 8.04206C28.8727 8.10003 28.8727 8.158 28.8727 8.27394L29.3365 10.8247C29.3944 10.9986 29.1626 11.1725 28.9886 11.0565L26.6698 9.83916C26.6118 9.78119 26.4959 9.78119 26.4379 9.83916L24.1191 11.0565C23.9452 11.1725 23.7133 10.9986 23.7713 10.8247L24.235 8.27394C24.235 8.21597 24.235 8.10003 24.1771 8.04206L22.322 6.24496C22.206 6.12901 22.264 5.83916 22.4379 5.83916L24.9886 5.49133C25.0466 5.49133 25.1626 5.43336 25.1626 5.37539L26.322 3.05655C26.4379 2.88264 26.6698 2.88264 26.7278 3.05655L27.8872 5.37539C27.9452 5.43336 28.0031 5.49133 28.0611 5.49133L30.6118 5.83916C30.8437 5.89713 30.9597 6.12901 30.7857 6.24496Z" fill="#1C5DAA"/>
</svg>
