<svg width="48" height="49" viewBox="0 0 48 49" fill="none" xmlns="http://www.w3.org/2000/svg">
<g clip-path="url(#clip0_1_2713)">
<path fill-rule="evenodd" clip-rule="evenodd" d="M13.9858 14.5204L4 24.4058C5.99734 26.3831 8.27899 28.0495 10.7666 29.3532C11.4542 31.1588 12.532 32.8521 14 34.3053C19.5229 39.7726 28.4772 39.7726 34 34.3053C35.468 32.8521 36.5458 31.1588 37.2334 29.3531C39.721 28.0495 42.0027 26.3831 44 24.4058L34.0223 14.5284C34.0149 14.521 34.0075 14.5136 34 14.5063C28.4772 9.03893 19.5229 9.03893 14 14.5063C13.9953 14.511 13.9905 14.5157 13.9858 14.5204ZM33.0445 31.1367C30.1345 32.1089 27.0797 32.6068 24 32.6068C20.9203 32.6068 17.8656 32.1089 14.9556 31.1367C15.2709 31.5508 15.619 31.9482 16 32.3254C20.4183 36.6993 27.5817 36.6993 32 32.3254C32.381 31.9482 32.7292 31.5508 33.0445 31.1367ZM16.2051 16.2882C16.9554 16.7789 17.7532 17.1988 18.588 17.5411C20.3038 18.2447 22.1428 18.6068 24 18.6068C25.8572 18.6068 27.6962 18.2447 29.412 17.5411C30.2468 17.1988 31.0446 16.7789 31.795 16.2881C27.4318 12.1783 20.5682 12.1783 16.2051 16.2882Z" fill="#3B4158"/>
</g>
<defs>
<clipPath id="clip0_1_2713">
<rect width="40" height="28" fill="white" transform="translate(4 10.4058)"/>
</clipPath>
</defs>
</svg>
