<svg width="104" height="91" viewBox="0 0 104 91" fill="none" xmlns="http://www.w3.org/2000/svg">
<path d="M51.893 62.2686C60.9633 62.2686 68.3162 54.8842 68.3162 45.7752C68.3162 36.6661 60.9633 29.2817 51.893 29.2817C42.8227 29.2817 35.4697 36.6661 35.4697 45.7752C35.4697 54.8842 42.8227 62.2686 51.893 62.2686Z" fill="#F5F7FA"/>
<path d="M52.1804 90.5229C49.3847 90.5229 46.5826 89.8017 44.0869 88.3528L19.3084 73.9848C14.3169 71.0934 11.2148 65.6998 11.2148 59.9105V31.1747C11.2148 25.3854 14.3169 19.9918 19.3084 17.1004L44.0869 2.73246C49.0783 -0.165378 55.2825 -0.165378 60.274 2.73246L85.0525 17.1004C90.0439 19.9918 93.146 25.3854 93.146 31.1747V59.9105C93.146 65.6998 90.0439 71.0934 85.0525 73.9848L60.274 88.3528C57.7782 89.8017 54.9825 90.5229 52.1804 90.5229ZM52.1804 9.53026C50.9294 9.53026 49.6783 9.85579 48.5613 10.5005L23.7828 24.8684C21.5488 26.1641 20.1573 28.5768 20.1573 31.1683V59.9042C20.1573 62.4956 21.5424 64.9084 23.7828 66.2041L48.5613 80.572C50.7953 81.8677 53.5719 81.8677 55.8059 80.572L80.5844 66.2041C82.8184 64.9084 84.2099 62.4956 84.2099 59.9042V31.1683C84.2099 28.5768 82.8248 26.1641 80.5844 24.8684L55.8059 10.5005C54.6889 9.8494 53.4379 9.53026 52.1804 9.53026Z" fill="#F5F7FA"/>
</svg>
