<svg width="86" height="78" viewBox="0 0 86 78" fill="none" xmlns="http://www.w3.org/2000/svg">
<path d="M1.18582 43.0373C-0.0605441 37.0949 1.72937 30.6293 6.62863 26.8273C6.81564 26.6812 6.99683 26.3962 6.98367 26.1596C6.58333 18.8961 11.0545 12.8426 18.4362 11.8461C18.8176 11.7949 18.9711 11.5305 19.0777 11.1637C19.932 8.21025 21.4823 5.73505 23.7285 3.73814C27.0176 0.812911 30.5521 -0.541578 34.9735 0.736931C38.4229 1.73441 40.7885 3.85211 42.0703 7.09002C42.9208 9.23938 43.0888 11.418 43.0903 13.9428C43.0952 33.2602 43.0952 52.5776 43.0903 71.895C43.0888 73.2116 42.4371 75.3011 41.1411 75.9688C36.4259 78.3929 29.972 78.4484 25.1897 76.1441C22.0491 74.6314 20.0327 72.1288 19.1405 68.6367C19.0426 68.2553 18.6335 68.1663 18.2462 68.1385C14.0771 67.8453 10.8665 66.0641 8.61433 62.795C6.6067 59.88 6.10407 56.309 7.04067 52.8767C7.15757 52.4487 7.01728 52.2178 6.67246 51.9446C3.78034 49.6564 1.95147 46.6873 1.18582 43.0373ZM39.17 43.4655C39.2479 42.8303 39.247 42.1991 39.1671 41.5718C39.2285 38.8979 39.2426 36.2156 39.2094 33.5252C39.2036 32.9978 39.0414 32.6076 38.5111 32.5009C38.0215 32.4031 37.6008 32.8137 37.1668 33.0928C36.1839 33.724 34.9799 34.2012 33.5547 34.5246C32.8126 34.6926 32.6664 35.1762 32.8505 35.8908C33.7418 39.3567 33.5246 42.7402 32.1988 46.0414C32.0877 46.3152 32.0468 46.5358 32.0761 46.7034C32.1238 46.98 32.2758 47.1734 32.532 47.2834C34.5879 48.1616 36.3894 49.4809 37.0615 51.6215C37.3089 52.4078 37.3305 53.0682 37.1258 53.6029C36.4611 55.3476 33.9318 55.0494 33.4773 53.2552C33.373 52.8412 33.298 52.5875 33.2523 52.494C32.7161 51.382 31.0855 50.6543 29.8668 50.4235C29.6086 50.3738 29.3997 50.4303 29.24 50.5929C27.0268 52.8499 24.5326 54.6443 21.7574 55.9758C21.318 56.1862 20.9621 56.2962 20.6892 56.3061C19.0674 56.3631 18.0973 54.37 19.1712 53.1296C19.3358 52.9396 19.6353 52.7346 20.0699 52.5144C22.7715 51.1467 25.4264 49.3217 27.1973 46.8202C29.6335 43.3769 30.123 39.5379 28.6658 35.3034C28.5518 34.9732 28.3517 34.7322 28.0229 34.6576C26.3415 34.2767 24.8258 33.6046 23.4758 32.6412C23.2229 32.46 22.9044 32.33 22.637 32.4497C19.6562 33.7926 16.563 36.0559 14.5656 38.8029C14.2958 39.175 14.0571 39.4225 13.8496 39.5452C12.4206 40.3941 10.6862 39.19 10.9697 37.5609C11.0282 37.2229 11.2059 36.8512 11.503 36.4461C13.5092 33.7108 16.205 31.595 19.1259 29.9308C19.8477 29.5202 19.8403 29.0409 19.383 28.379C18.4961 27.0976 17.1826 25.1864 18.9636 24.0161C19.7274 23.5144 20.4959 23.5665 21.2694 24.1723C21.6376 24.4602 21.8173 24.9425 22.0467 25.3544C24.3612 29.5422 28.5402 32.1444 33.4086 30.5547C36.4903 29.5479 38.4482 27.0523 39.0414 23.9196C39.1544 23.3205 39.2129 22.3499 39.2167 21.0075C39.2245 18.3053 39.2255 15.6032 39.2197 12.901C39.2094 8.60525 37.5086 5.02688 33.0229 4.23055C32.1229 4.07128 30.8721 4.06397 30.0494 4.30946C27.1315 5.17884 24.4459 8.13475 23.2347 10.8744C23.0242 11.3498 23.0555 11.7185 23.3282 11.9805C23.448 12.0945 23.7388 12.2231 24.2005 12.3662C27.2689 13.3179 29.9302 14.935 32.1842 17.2173C32.5397 17.5778 32.7673 17.8709 32.8665 18.0969C33.5489 19.637 31.9212 21.2544 30.365 20.6393C30.1245 20.5449 29.8356 20.3281 29.4986 19.9891C27.1724 17.6453 24.0485 15.8744 20.7361 15.6509C15.8091 15.3178 11.7734 18.4681 10.9989 23.3497C10.7963 24.6278 10.7827 26.0028 10.958 27.4746C11.0077 27.8934 10.9054 28.2802 10.6512 28.6347C10.5158 28.8228 10.2226 29.0647 9.77157 29.3609C7.20189 31.0461 5.59802 33.439 4.95998 36.5396C4.2484 40.0011 4.81533 43.6452 6.80249 46.5514C7.2652 47.2275 7.75469 47.7885 8.27096 48.2346C8.52617 48.4567 8.7926 48.5088 9.0702 48.3909C9.21828 48.3287 9.39995 48.1655 9.61522 47.9016C12.3641 44.5331 15.8022 42.1465 19.9296 40.7419C20.3464 40.5996 20.6756 40.529 20.9173 40.53C22.6926 40.5417 23.467 42.7159 22.1564 43.8966C21.9655 44.0679 21.6796 44.217 21.2986 44.3437C17.4909 45.6075 13.9183 48.0652 11.8391 51.5617C11.2887 52.49 10.904 53.3812 10.6848 54.2356C9.29084 59.6931 13.7123 64.4287 19.1273 64.2752C21.8509 64.1973 24.0144 63.0259 25.6177 60.7611C25.9742 60.2585 26.2417 59.9462 26.42 59.8246C26.8027 59.5625 27.2294 59.4729 27.6999 59.5556C28.7441 59.7417 29.2974 60.3467 29.3599 61.3705C29.3977 62.009 29.1245 62.4999 28.7621 63.0099C27.4335 64.8763 25.7483 66.2663 23.7065 67.18C23.2039 67.4035 22.9117 67.7176 23.052 68.2714C23.8235 71.3122 26.6596 72.9544 29.5541 73.5841C32.5836 74.2437 35.5721 74.0275 38.5199 72.9355C38.8091 72.8288 39.2167 72.4825 39.2182 72.2064C39.2221 70.3478 39.223 68.4887 39.2211 66.6291C39.2211 66.0461 39.1058 65.5917 38.4992 65.4734C38.0932 65.3944 37.8214 65.599 37.532 65.8591C36.8374 66.4835 36.2361 67.1249 35.7276 67.7834C35.4479 68.1467 35.2039 68.3855 34.9955 68.4994C33.9945 69.0429 32.773 68.6235 32.2865 67.5832C31.8788 66.7138 32.2427 65.9803 32.8256 65.2235C34.3414 63.2567 36.2482 61.7805 38.5461 60.7947C38.9026 60.6428 39.2197 60.4061 39.2197 60.0232C39.2226 54.5031 39.2197 48.9856 39.17 43.4655Z" fill="#F5F7FA"/>
<path d="M53.294 12.3401C55.9304 12.3401 58.0676 10.2029 58.0676 7.56656C58.0676 4.93018 55.9304 2.79297 53.294 2.79297C50.6576 2.79297 48.5205 4.93018 48.5205 7.56656C48.5205 10.2029 50.6576 12.3401 53.294 12.3401Z" fill="#F5F7FA"/>
<path d="M60.8305 11.2813C60.929 11.0017 60.9849 10.6321 60.9986 10.1723C61.0142 9.66576 61.0531 9.29803 61.1155 9.06912C61.7452 6.76488 64.2861 5.64709 66.4298 6.81309C67.3064 7.28942 67.8758 7.99565 68.1378 8.93177C68.769 11.1805 67.2684 13.4745 64.9057 13.6367C64.2093 13.6854 63.843 13.7132 63.8069 13.72C61.5845 14.1612 59.9028 16.0329 59.7069 18.2905C59.631 19.1584 59.9963 20.0366 59.9378 20.9104C59.7702 23.402 58.6584 25.1813 56.602 26.2479C55.8549 26.6357 55.0805 26.862 54.2787 26.9273C53.406 26.9984 52.5867 26.8947 51.8211 26.6161C47.1396 24.9197 46.1737 18.6776 50.3483 15.7978C51.8104 14.7886 53.4805 14.4866 55.3586 14.8918C55.7298 14.9722 56.2324 14.9853 56.6005 14.9181C58.7046 14.5275 60.1146 13.3152 60.8305 11.2813Z" fill="#F5F7FA"/>
<path d="M72.1679 26.5277C75.7 26.5277 78.5634 23.6643 78.5634 20.1322C78.5634 16.6001 75.7 13.7368 72.1679 13.7368C68.6358 13.7368 65.7725 16.6001 65.7725 20.1322C65.7725 23.6643 68.6358 26.5277 72.1679 26.5277Z" fill="#F5F7FA"/>
<path d="M62.3918 34.1926C64.4577 34.1926 66.1324 32.5179 66.1324 30.452C66.1324 28.3861 64.4577 26.7114 62.3918 26.7114C60.3261 26.7114 58.6514 28.3861 58.6514 30.452C58.6514 32.5179 60.3261 34.1926 62.3918 34.1926Z" fill="#F5F7FA"/>
<path d="M55.9814 44.0696C51.4853 46.7451 46.1332 42.2446 48.1071 37.3541C49.3871 34.1849 53.1935 33.0247 56.0689 34.8075C56.2686 34.9311 56.633 35.2316 57.162 35.709C58.9455 37.32 61.0735 37.9358 63.5458 37.5558C65.1208 37.3143 66.4714 36.6182 67.5974 35.4678C68.0373 35.0178 68.4917 34.3617 68.9286 33.7861C71.1188 30.9003 74.9588 29.6597 78.4159 30.5584C85.5332 32.4082 87.6723 41.5272 82.0965 46.3344C78.0711 49.8046 72.0832 49.1413 68.835 44.9113C68.3909 44.3341 67.9642 43.7161 67.4762 43.2426C64.887 40.7338 60.6965 40.4767 57.8209 42.5705C57.2759 42.9679 56.6359 43.6794 55.9814 44.0696Z" fill="#F5F7FA"/>
<path d="M39.1684 41.5718C39.2482 42.1991 39.2493 42.8303 39.1714 43.4654C38.8957 42.8069 38.8947 42.1757 39.1684 41.5718Z" fill="#F5F7FA"/>
<path d="M62.3905 52.1183C64.4555 52.1183 66.1296 50.4442 66.1296 48.3792C66.1296 46.3142 64.4555 44.6401 62.3905 44.6401C60.3255 44.6401 58.6514 46.3142 58.6514 48.3792C58.6514 50.4442 60.3255 52.1183 62.3905 52.1183Z" fill="#F5F7FA"/>
<path d="M50.8296 63.3229C49.0004 62.2641 47.974 60.7358 47.751 58.7379C47.4983 56.4599 48.451 54.2814 50.3343 52.9825C53.2962 50.9397 57.3405 51.8676 59.1174 54.9784C59.8821 56.3167 60.1042 57.7916 59.7836 59.4028C59.7077 59.7826 59.6775 60.1094 59.693 60.3831C59.7213 60.8702 59.7646 61.2003 59.8231 61.3738C60.6305 63.7643 62.254 65.0417 64.6931 65.2064C65.1968 65.2405 65.5658 65.2984 65.8007 65.3803C67.2054 65.8664 68.0352 66.896 68.2905 68.4691C68.3392 68.774 68.3196 69.1272 68.2321 69.5285C67.9543 70.7879 67.1157 71.8137 65.9146 72.2476C63.5811 73.0922 61.1265 71.4791 60.9905 69.0084C60.9574 68.3966 60.9292 68.0352 60.9058 67.9241C60.4192 65.6593 58.4437 63.9761 56.1219 63.8826C55.8912 63.8729 55.4913 63.9187 54.9224 64.0199C53.4486 64.2809 52.0843 64.0487 50.8296 63.3229Z" fill="#F5F7FA"/>
<path d="M72.1679 65.0902C75.7 65.0902 78.5634 62.2269 78.5634 58.6948C78.5634 55.1626 75.7 52.2993 72.1679 52.2993C68.6358 52.2993 65.7725 55.1626 65.7725 58.6948C65.7725 62.2269 68.6358 65.0902 72.1679 65.0902Z" fill="#F5F7FA"/>
<path d="M53.2898 76.0375C55.9269 76.0375 58.0648 73.8996 58.0648 71.2625C58.0648 68.6252 55.9269 66.4873 53.2898 66.4873C50.6525 66.4873 48.5146 68.6252 48.5146 71.2625C48.5146 73.8996 50.6525 76.0375 53.2898 76.0375Z" fill="#F5F7FA"/>
</svg>
