<svg width="83" height="91" viewBox="0 0 83 91" fill="none" xmlns="http://www.w3.org/2000/svg">
<path d="M40.893 62.2679C49.9633 62.2679 57.3162 54.8835 57.3162 45.7744C57.3162 36.6654 49.9633 29.281 40.893 29.281C31.8227 29.281 24.4697 36.6654 24.4697 45.7744C24.4697 54.8835 31.8227 62.2679 40.893 62.2679Z" fill="#F5F7FA"/>
<path d="M41.1804 90.5227C38.3847 90.5227 35.5826 89.8014 33.0869 88.3525L8.30839 73.9846C3.31694 71.0931 0.214844 65.6996 0.214844 59.9103V31.1744C0.214844 25.3852 3.31694 19.9916 8.30839 17.1001L33.0869 2.73222C38.0783 -0.165622 44.2825 -0.165622 49.274 2.73222L74.0525 17.1001C79.0439 19.9916 82.146 25.3852 82.146 31.1744V59.9103C82.146 65.6996 79.0439 71.0931 74.0525 73.9846L49.274 88.3525C46.7782 89.8014 43.9825 90.5227 41.1804 90.5227ZM41.1804 9.53001C39.9294 9.53001 38.6783 9.85554 37.5613 10.5002L12.7828 24.8681C10.5488 26.1639 9.15731 28.5766 9.15731 31.1681V59.9039C9.15731 62.4954 10.5424 64.9081 12.7828 66.2038L37.5613 80.5718C39.7953 81.8675 42.5719 81.8675 44.8059 80.5718L69.5844 66.2038C71.8184 64.9081 73.2099 62.4954 73.2099 59.9039V31.1681C73.2099 28.5766 71.8248 26.1639 69.5844 24.8681L44.8059 10.5002C43.6889 9.84916 42.4379 9.53001 41.1804 9.53001Z" fill="#F5F7FA"/>
</svg>
