<svg width="83" height="91" viewBox="0 0 83 91" fill="none" xmlns="http://www.w3.org/2000/svg">
<path d="M41.3273 90.759C38.5158 90.759 35.7042 90.0345 33.1961 88.5854L8.30108 74.2119C3.28491 71.3198 0.169922 65.9197 0.169922 60.1294V31.3886C0.169922 25.5984 3.28491 20.2044 8.30108 17.3062L33.1961 2.93271C38.2123 0.0344752 44.4423 0.0344752 49.4584 2.93271L74.3473 17.3062C79.3635 20.1982 82.4785 25.5984 82.4785 31.3886V60.1294C82.4785 65.9197 79.3635 71.3136 74.3473 74.2119L49.4522 88.5854C46.9442 90.0345 44.1326 90.759 41.3211 90.759H41.3273ZM41.3273 9.74479C40.0701 9.74479 38.813 10.0668 37.6859 10.7171L12.7909 25.0906C10.5491 26.3849 9.14949 28.8 9.14949 31.3948V60.1356C9.14949 62.7242 10.5429 65.1394 12.7909 66.4399L37.6859 80.8134C39.9339 82.1077 42.7207 82.1077 44.9625 80.8134L69.8575 66.4399C72.0993 65.1456 73.499 62.7304 73.499 60.1356V31.3948C73.499 28.8062 72.1055 26.391 69.8575 25.0906L44.9625 10.7171C43.8416 10.0668 42.5782 9.74479 41.3211 9.74479H41.3273Z" fill="#F5F7FA"/>
<path d="M39.2607 45.7875L27.5842 39.3757C27.0658 39.0904 26.4499 39.1008 25.9418 39.4068C25.4337 39.7129 25.1309 40.2524 25.1309 40.849V55.727C25.1309 56.0226 25.2078 56.3131 25.3567 56.5725C25.5055 56.8267 25.716 57.0394 25.9726 57.1898L37.6491 63.8974C37.9057 64.0426 38.188 64.1205 38.4703 64.1205C38.7526 64.1205 39.0451 64.0426 39.3069 63.8922C39.8253 63.5861 40.1332 63.0466 40.1332 62.4397V47.266C40.1332 46.6487 39.7996 46.0832 39.2658 45.7927L39.2607 45.7875ZM55.6385 35.5058C55.6385 35.1997 55.5564 34.8988 55.3973 34.6342C55.2382 34.3697 55.0124 34.157 54.7404 34.0169L42.0066 27.3457C41.7705 27.2212 41.5036 27.1589 41.2367 27.1589C40.9698 27.1589 40.7081 27.2264 40.4668 27.3509L27.9229 34.0221C27.6561 34.1622 27.4302 34.3749 27.2763 34.6394C27.1223 34.8988 27.035 35.1997 27.035 35.5058C27.035 35.8118 27.1171 36.1127 27.2711 36.3721C27.4251 36.6315 27.6509 36.8493 27.9178 36.9894L40.4617 43.7021C40.6978 43.8266 40.9647 43.8941 41.2316 43.8993C41.4985 43.8993 41.7654 43.837 42.0066 43.7073L54.7404 36.9946C55.0124 36.8545 55.2382 36.6366 55.3922 36.3773C55.5513 36.1127 55.6334 35.8118 55.6334 35.5058H55.6385ZM56.9473 39.4068C56.4392 39.1008 55.8233 39.0904 55.3049 39.3757L43.6285 45.7875C43.3667 45.9328 43.146 46.1455 42.992 46.4049C42.838 46.6642 42.7611 46.9599 42.7611 47.2608V62.4345C42.7611 63.0363 43.069 63.581 43.5874 63.887C43.8492 64.0426 44.1366 64.1153 44.424 64.1153C44.7114 64.1153 44.9886 64.0426 45.2452 63.8922L56.9217 57.1847C57.1783 57.0394 57.3887 56.8267 57.5376 56.5673C57.6864 56.3132 57.7634 56.0226 57.7634 55.7218V40.8438C57.7634 40.2472 57.4606 39.7077 56.9525 39.4016H56.9473V39.4068Z" fill="#F5F7FA"/>
</svg>
