<svg width="30" height="33" viewBox="0 0 30 33" fill="none" xmlns="http://www.w3.org/2000/svg">
<path fill-rule="evenodd" clip-rule="evenodd" d="M22.0756 20.7067L25.4521 26.555L26.6052 25.4019L25.5141 22.9449C26.434 21.5747 27.0944 20.0157 27.4239 18.3378L29.931 17.3727V14.3816L27.4245 13.4169C27.0949 11.7387 26.4347 10.1791 25.5144 8.80868L26.6052 6.3525L24.4902 4.2375L22.0333 5.32868C20.663 4.40881 19.104 3.74843 17.4261 3.41887L16.461 0.911621H13.4699L12.5049 3.41875C10.8269 3.74831 9.26794 4.40868 7.89769 5.32856L5.44081 4.23737L3.32575 6.35243L4.41681 8.80918C3.49675 10.1794 2.83644 11.7386 2.50694 13.4166L0 14.3816V17.3727L2.50656 18.3375C2.83625 20.0156 3.49638 21.5753 4.41663 22.9457L3.32575 25.4019L4.47887 26.555L7.85538 20.7067C6.9185 19.3302 6.37075 17.6677 6.37075 15.8771C6.37075 11.1304 10.2188 7.28237 14.9655 7.28237C19.7122 7.28237 23.5602 11.1304 23.5602 15.8771C23.5602 17.6677 23.0125 19.3302 22.0756 20.7067ZM16.8899 14.9789L25.3189 29.5784C25.7213 30.2754 25.7213 31.1036 25.3189 31.8006C24.9166 32.4975 24.1993 32.9116 23.3946 32.9116H6.53644C5.73169 32.9116 5.01444 32.4974 4.61206 31.8006C4.20969 31.1037 4.20969 30.2754 4.61206 29.5784L13.0411 14.9789C13.4435 14.282 14.1607 13.8679 14.9655 13.8679C15.7702 13.8679 16.4875 14.282 16.8899 14.9789ZM14.9655 28.5434C14.3534 28.5434 13.8572 29.0396 13.8572 29.6517C13.8572 30.2639 14.3534 30.7601 14.9655 30.7601C15.5776 30.7601 16.0738 30.2639 16.0738 29.6517C16.0738 29.0396 15.5776 28.5434 14.9655 28.5434ZM14.9656 26.5651C14.5 26.5651 14.1178 26.1964 14.1009 25.7312L13.8822 19.6754C13.8734 19.4318 13.9549 19.219 14.1241 19.0436C14.2933 18.8681 14.5031 18.7791 14.7467 18.7791H15.1841C15.4279 18.7791 15.6376 18.8682 15.8068 19.0436C15.976 19.219 16.0574 19.4318 16.0487 19.6754L15.83 25.7312C15.8132 26.1964 15.4311 26.5651 14.9656 26.5651Z" fill="#1C5DAA"/>
</svg>
