<?xml version="1.0" standalone="no"?>
<!DOCTYPE svg PUBLIC "-//W3C//DTD SVG 20010904//EN"
 "http://www.w3.org/TR/2001/REC-SVG-20010904/DTD/svg10.dtd">
<svg version="1.0" xmlns="http://www.w3.org/2000/svg"
 width="629.000000pt" height="397.000000pt" viewBox="0 0 629.000000 397.000000"
 preserveAspectRatio="xMidYMid meet">

<g transform="translate(0.000000,397.000000) scale(0.100000,-0.100000)"
fill="#000000" stroke="none">
<path d="M5015 3754 c-82 -13 -211 -33 -285 -44 -74 -12 -189 -30 -255 -40
-66 -11 -205 -31 -310 -45 -104 -14 -230 -32 -280 -40 -77 -13 -349 -54 -975
-146 -74 -11 -193 -29 -265 -40 -71 -11 -195 -29 -275 -40 -351 -50 -512 -78
-542 -96 -65 -38 -65 -37 -77 -578 -24 -1075 -34 -1380 -43 -1392 -5 -6 -55
-14 -116 -18 -186 -11 -406 -30 -1112 -95 -179 -16 -335 -30 -348 -30 -15 0
-26 -9 -32 -26 -6 -15 -19 -38 -30 -51 -11 -14 -18 -29 -15 -33 3 -4 29 -13
57 -20 29 -7 100 -24 158 -37 58 -14 154 -35 214 -47 60 -12 111 -26 113 -32
4 -13 -42 -24 -102 -24 -53 0 -106 -10 -100 -19 2 -4 -3 -20 -11 -35 -14 -28
-15 -51 -40 -659 l-7 -167 2872 0 2872 0 -5 53 c-3 28 -8 146 -11 262 -3 116
-8 233 -10 260 -3 28 -10 156 -15 285 -13 299 -20 401 -30 395 -4 -3 -11 2
-14 11 -3 8 -2 13 2 10 5 -3 9 1 9 8 0 8 -6 12 -14 9 -7 -3 -13 0 -13 6 0 16
-155 14 -345 -4 -121 -12 -160 -13 -166 -4 -9 15 -15 140 -34 739 -28 852 -46
1363 -54 1529 l-8 164 -32 29 c-29 26 -38 28 -104 27 -39 -1 -139 -12 -222
-25z m265 -69 c13 -16 17 -112 50 -1090 6 -187 17 -533 25 -770 20 -592 22
-542 -17 -549 -39 -7 -334 -27 -416 -28 -50 0 -86 11 -282 91 -123 50 -230 89
-238 86 -7 -2 -11 -1 -8 4 6 9 -22 21 -87 41 -25 8 -27 7 -22 -10 4 -13 -1
-22 -14 -29 -48 -26 -107 -1 -113 47 -3 27 -4 27 -73 27 l-70 0 -3 185 c-19
1183 -27 1816 -25 1819 3 5 19 7 528 82 193 28 433 63 535 79 226 34 215 33
230 15z m-2610 -685 l40 -20 0 -65 0 -64 -47 -36 c-39 -30 -54 -35 -78 -31
-53 11 -80 38 -83 86 -5 65 4 85 50 119 49 36 65 38 118 11z m560 -5 c-10 -12
-10 -15 1 -15 11 0 11 -2 -1 -10 -10 -6 -11 -10 -2 -10 6 0 12 -4 12 -10 0 -5
-9 -10 -20 -10 -11 0 -20 5 -20 11 0 6 -7 3 -16 -5 -22 -23 -45 -17 -57 14 -3
10 -6 7 -6 -9 -1 -16 -5 -21 -15 -18 -8 3 -17 1 -20 -6 -3 -9 -8 -8 -15 3 -6
8 -11 10 -11 4 0 -18 -31 -26 -46 -13 -8 6 -14 20 -14 30 0 13 -5 16 -16 12
-13 -5 -13 -7 -2 -14 10 -7 10 -9 1 -9 -7 0 -13 -7 -13 -15 0 -8 -5 -15 -11
-15 -6 0 -9 14 -7 33 3 28 7 32 34 33 17 1 36 4 43 8 7 4 18 2 26 -4 9 -7 15
-8 15 -2 0 15 37 21 50 8 9 -8 14 -8 17 2 7 19 51 15 56 -5 4 -14 5 -12 6 5 1
15 7 22 22 22 18 0 19 -2 9 -15z m-311 -62 c0 -21 -3 -32 -6 -25 -4 10 -10 9
-25 -4 -15 -15 -23 -16 -38 -6 -14 9 -20 8 -24 -1 -3 -9 -7 -9 -14 1 -7 11
-10 11 -15 -2 -4 -9 -16 -16 -27 -16 -16 0 -20 6 -20 35 0 31 3 35 25 35 14 0
25 -5 25 -12 0 -6 7 -3 15 8 14 19 14 19 15 -1 1 -18 1 -19 11 -2 11 18 49 24
49 7 0 -5 5 -10 10 -10 6 0 10 7 10 15 0 8 2 15 5 15 3 0 5 -17 4 -37z m141
-563 c58 -29 60 -32 60 -70 0 -38 -1 -39 -25 -30 -13 5 -42 19 -65 30 -37 19
-40 24 -40 60 0 22 2 40 5 40 3 0 32 -14 65 -30z m350 20 c0 -5 -6 -10 -14
-10 -8 0 -18 5 -21 10 -3 6 3 10 14 10 12 0 21 -4 21 -10z m-516 -83 c-11 -7
-84 -59 -162 -116 l-142 -104 0 -118 0 -119 158 114 c132 96 158 118 162 144
l5 30 193 -97 c181 -90 192 -98 175 -113 -25 -21 -361 -248 -368 -248 -4 0 -3
5 1 12 5 8 2 9 -10 5 -13 -5 -17 -3 -13 6 3 8 -1 14 -9 14 -7 0 -11 -3 -9 -6
6 -10 -23 -71 -34 -71 -14 0 -31 33 -31 59 0 12 -5 21 -11 21 -5 0 -7 4 -4 10
8 12 232 180 241 180 3 0 4 -9 1 -20 -3 -11 -2 -22 2 -24 15 -10 34 14 38 46
2 18 11 39 21 46 15 12 13 12 -13 6 -39 -9 -45 -13 -45 -27 -1 -15 -242 -187
-262 -187 -9 0 -55 21 -102 46 -48 25 -89 44 -92 41 -6 -6 55 -51 74 -54 8 -1
20 -7 26 -14 8 -9 7 -10 -8 -5 -13 4 -17 2 -13 -8 4 -10 1 -13 -8 -10 -8 3
-13 10 -12 16 1 5 -12 12 -29 14 -17 2 -44 9 -60 15 -31 13 -39 15 -68 17 -10
1 -16 7 -13 15 3 8 -4 14 -16 15 -12 0 -23 6 -25 12 -2 5 -9 7 -15 4 -23 -12
52 52 107 91 l56 39 0 56 0 56 73 52 c39 28 108 78 152 111 44 32 87 59 95 60
10 0 8 -4 -6 -12z m-231 -16 c-6 -3 -16 -17 -22 -29 -7 -13 -15 -21 -18 -19
-8 9 30 66 40 60 5 -3 5 -8 0 -12z m778 0 l23 -18 -31 -17 c-24 -12 -38 -13
-57 -6 -30 11 -32 17 -9 42 21 23 45 23 74 -1z m-541 -103 l0 -103 -150 -107
-150 -108 0 103 0 102 148 107 c81 59 148 107 150 108 1 0 2 -46 2 -102z m270
76 c0 -8 -4 -12 -10 -9 -5 3 -10 13 -10 21 0 8 5 12 10 9 6 -3 10 -13 10 -21z
m663 -74 c59 -29 107 -55 107 -59 -1 -11 -212 -145 -229 -144 -9 1 -34 4 -56
8 -30 5 -36 4 -25 -4 18 -13 3 -13 -25 -1 -11 5 -14 9 -7 9 7 1 11 5 8 10 -3
4 -18 6 -32 3 -19 -3 -25 -1 -20 7 6 8 0 10 -18 5 -17 -4 -26 -2 -26 6 0 8 -8
10 -21 7 -13 -4 -40 4 -66 18 l-45 23 94 69 c51 38 113 83 137 101 l44 31 36
-18 c20 -10 84 -42 144 -71z m-791 56 c11 -26 5 -56 -11 -56 -16 0 -44 48 -37
65 8 23 35 18 48 -9z m148 -77 l0 -40 -62 33 c-63 33 -79 56 -64 94 5 12 17 9
66 -16 58 -30 60 -31 60 -71z m-570 44 c0 -15 -2 -15 -24 -7 -23 9 -20 23 4
21 11 -1 20 -7 20 -14z m377 -18 c29 -14 52 -59 38 -73 -3 -3 -21 2 -40 11
-29 14 -35 22 -35 47 0 35 -2 34 37 15z m-427 -21 c0 -8 -5 -12 -10 -9 -6 4
-8 11 -5 16 9 14 15 11 15 -7z m621 -60 c14 -17 3 -18 -40 -3 -17 6 -31 17
-31 24 0 11 6 12 29 4 17 -6 35 -17 42 -25z m-891 -9 c11 -13 8 -15 -14 -15
-25 0 -33 10 -19 23 10 11 19 8 33 -8z m223 -51 c-33 -27 -43 -29 -43 -10 0 8
15 26 33 40 27 22 33 23 35 9 2 -8 -9 -26 -25 -39z m-498 1 c-34 -33 -33 -62
3 -68 25 -4 25 -4 -5 -6 -28 -1 -33 2 -33 23 0 24 34 76 50 76 5 0 -2 -11 -15
-25z m100 -5 c26 -28 15 -31 -12 -3 -12 13 -19 23 -14 23 4 0 16 -9 26 -20z
m-47 -20 c15 0 15 -2 2 -10 -23 -15 -50 -12 -50 6 0 11 5 14 16 10 9 -3 23 -6
32 -6z m172 -80 c0 -5 -4 -10 -10 -10 -5 0 -10 5 -10 10 0 6 5 10 10 10 6 0
10 -4 10 -10z m-129 -102 c33 -18 59 -35 59 -38 0 -3 -23 -18 -51 -33 -47 -27
-53 -28 -97 -17 -78 19 -81 28 -26 77 27 23 51 43 53 43 2 0 30 -15 62 -32z
m1230 -40 c0 -7 2 -22 5 -33 2 -11 5 -36 7 -55 3 -32 9 -38 83 -77 43 -23 80
-46 81 -50 2 -8 -41 -39 -147 -106 -56 -35 -110 -52 -110 -34 0 5 -9 7 -20 4
-10 -3 -24 1 -30 8 -8 10 10 28 80 79 50 37 88 71 85 76 -9 15 -42 12 -59 -5
-8 -8 -18 -15 -21 -15 -4 0 -24 -13 -45 -30 -21 -16 -41 -30 -45 -30 -4 0 -5
18 -2 40 l5 40 -26 -16 c-15 -8 -40 -26 -56 -39 l-29 -23 37 -17 c20 -10 39
-22 42 -27 3 -5 -17 2 -45 16 -30 16 -51 22 -51 15 0 -8 -6 -7 -17 2 -16 13
-17 12 -5 -3 8 -10 17 -17 20 -16 18 2 32 -3 32 -11 0 -10 -19 -9 -37 2 -7 5
-22 10 -32 12 -11 2 -31 10 -45 17 l-26 13 68 53 c65 52 67 53 73 30 6 -19 7
-20 8 -4 1 18 2 19 14 3 10 -15 12 -11 14 28 2 41 1 44 -17 35 -10 -5 -21 -10
-24 -10 -14 0 -4 57 13 79 l19 24 8 -24 c10 -30 11 -35 13 -55 1 -11 15 -4 49
26 26 24 62 49 80 56 17 8 32 19 32 24 0 15 20 12 21 -2z m-981 -118 l0 -80
50 -25 c45 -23 65 -45 40 -45 -5 0 -26 -14 -46 -32 -30 -27 -39 -30 -55 -20
-26 17 -32 15 -26 -7 3 -15 1 -18 -11 -14 -10 4 -13 2 -8 -5 5 -8 2 -10 -8 -6
-9 3 -16 11 -16 16 0 6 -6 8 -14 5 -17 -7 -105 25 -134 48 -1 1 4 14 12 29 8
15 16 22 18 16 5 -15 36 -2 42 18 2 10 7 34 11 55 5 30 15 44 48 67 23 16 49
35 57 43 32 32 40 20 40 -63z m366 56 c19 -15 19 -15 -1 -12 -11 2 -26 -2 -34
-8 -11 -8 -13 -8 -7 2 4 7 2 12 -6 12 -9 0 -9 3 2 10 20 13 23 13 46 -4z m614
-147 c-48 -39 -134 -99 -142 -99 -12 0 24 33 52 48 14 7 43 26 65 42 46 33 63
40 25 9z m-1460 -80 c0 -5 -12 -9 -26 -9 -22 0 -24 2 -14 14 12 15 40 11 40
-5z m1261 -36 c13 -16 12 -17 -3 -4 -17 13 -22 21 -14 21 2 0 10 -8 17 -17z
m46 -19 c-3 -3 -12 -4 -19 -1 -8 3 -5 6 6 6 11 1 17 -2 13 -5z m-1242 -114 c3
-5 -3 -10 -15 -10 -12 0 -18 5 -15 10 3 6 10 10 15 10 5 0 12 -4 15 -10z m385
-8 c0 -5 -10 -17 -22 -28 -12 -10 -19 -14 -16 -9 3 6 8 18 11 28 6 17 27 24
27 9z"/>
<path d="M4369 3401 c-53 -9 -104 -22 -113 -30 -23 -19 -21 -78 3 -90 29 -16
274 20 301 44 22 20 27 64 8 83 -16 16 -81 14 -199 -7z m61 -55 c0 -3 -4 -8
-10 -11 -5 -3 -10 -1 -10 4 0 6 5 11 10 11 6 0 10 -2 10 -4z"/>
<path d="M4829 3397 c7 -7 14 -8 21 -1 6 6 2 10 -12 11 -16 2 -18 -1 -9 -10z"/>
<path d="M4650 2685 c0 -8 5 -15 11 -15 5 0 8 4 5 9 -4 5 0 12 6 14 8 3 6 6
-4 6 -10 1 -18 -6 -18 -14z"/>
<path d="M4650 2184 c-228 -24 -425 -47 -437 -49 -20 -5 -23 -12 -23 -57 l0
-51 68 7 c137 13 355 35 620 62 l272 28 0 53 0 53 -42 -1 c-24 -1 -230 -21
-458 -45z m70 -52 c0 -5 -6 -9 -12 -10 -84 -13 -98 -13 -98 -3 0 6 7 8 15 5 8
-4 15 -2 15 3 0 5 18 10 40 11 22 2 40 -1 40 -6z"/>
<path d="M2563 2965 c-29 -23 -33 -32 -33 -75 0 -45 3 -51 30 -65 40 -21 51
-19 87 13 40 35 53 100 25 125 -33 30 -74 30 -109 2z m71 -31 c19 -19 20 -35
4 -56 -17 -21 -39 -27 -60 -16 -25 12 -22 54 4 72 28 20 33 20 52 0z"/>
<path d="M3156 2983 c-12 -13 -6 -33 12 -32 12 0 13 2 3 6 -10 4 -10 7 -1 13
7 4 8 10 2 13 -5 4 -12 4 -16 0z"/>
<path d="M3090 2969 c0 -5 5 -7 10 -4 6 3 10 8 10 11 0 2 -4 4 -10 4 -5 0 -10
-5 -10 -11z"/>
<path d="M3020 2949 c0 -24 23 -21 28 4 2 10 -3 17 -12 17 -10 0 -16 -9 -16
-21z"/>
<path d="M2857 2943 c-13 -13 -7 -33 11 -33 14 0 15 2 2 10 -10 6 -11 10 -2
10 6 0 12 5 12 10 0 11 -13 13 -23 3z"/>
<path d="M2765 2930 c-7 -12 2 -30 16 -30 12 0 12 27 0 35 -5 3 -12 1 -16 -5z"/>
<path d="M2762 1954 l-144 -103 55 -27 54 -27 48 33 c27 18 45 27 40 20 -8
-12 10 -30 31 -30 5 0 25 11 43 24 32 24 32 25 11 36 -17 9 -26 8 -46 -5 -44
-28 -25 -8 26 29 28 20 48 41 45 46 -3 6 1 7 10 4 11 -5 14 -2 9 10 -6 15 4
20 32 17 7 -1 14 7 16 17 4 15 -5 24 -39 41 -24 11 -45 21 -46 20 -1 0 -67
-47 -145 -105z"/>
<path d="M3050 2040 c0 -5 5 -10 10 -10 6 0 10 5 10 10 0 6 -4 10 -10 10 -5 0
-10 -4 -10 -10z"/>
<path d="M2796 2175 c-20 -31 -21 -85 -2 -85 37 0 77 43 76 82 -1 7 -7 -1 -14
-17 -16 -36 -41 -59 -56 -50 -16 10 -12 40 11 69 11 14 16 26 11 26 -5 0 -17
-11 -26 -25z"/>
<path d="M2630 2069 c0 -5 5 -7 10 -4 6 3 10 8 10 11 0 2 -4 4 -10 4 -5 0 -10
-5 -10 -11z"/>
<path d="M2630 2019 c0 -5 5 -7 10 -4 6 3 10 8 10 11 0 2 -4 4 -10 4 -5 0 -10
-5 -10 -11z"/>
<path d="M2630 1969 c0 -5 5 -7 10 -4 6 3 10 8 10 11 0 2 -4 4 -10 4 -5 0 -10
-5 -10 -11z"/>
<path d="M2348 1573 c7 -3 16 -2 19 1 4 3 -2 6 -13 5 -11 0 -14 -3 -6 -6z"/>
<path d="M6130 953 c1 -16 5 -47 9 -70 9 -48 4 -61 -15 -35 -12 16 -13 16 -14
0 0 -28 11 -47 25 -42 7 3 15 -4 18 -16 3 -12 11 -20 18 -18 20 7 21 24 4 41
-8 9 -15 26 -14 39 0 13 3 17 6 11 10 -26 23 -12 23 26 0 24 -8 48 -21 65 -26
33 -39 33 -39 -1z m27 -45 c-3 -8 -6 -5 -6 6 -1 11 2 17 5 13 3 -3 4 -12 1
-19z"/>
<path d="M6225 821 c-3 -5 -1 -12 5 -16 5 -3 10 1 10 9 0 18 -6 21 -15 7z"/>
<path d="M6117 733 c-3 -5 -2 -15 2 -22 5 -7 11 -9 14 -4 3 5 2 15 -2 22 -5 7
-11 9 -14 4z"/>
<path d="M6116 654 c-10 -25 -7 -74 4 -74 6 0 10 20 10 45 0 47 -4 55 -14 29z"/>
<path d="M6202 570 c0 -14 2 -19 5 -12 2 6 2 18 0 25 -3 6 -5 1 -5 -13z"/>
<path d="M6110 565 c-7 -119 5 -239 21 -214 11 18 2 200 -11 213 -6 6 -10 6
-10 1z"/>
<path d="M6082 415 c0 -16 2 -22 5 -12 2 9 2 23 0 30 -3 6 -5 -1 -5 -18z"/>
<path d="M6120 209 c0 -5 5 -7 10 -4 6 3 10 8 10 11 0 2 -4 4 -10 4 -5 0 -10
-5 -10 -11z"/>
<path d="M6100 90 c0 -19 3 -21 12 -12 9 9 9 15 0 24 -9 9 -12 7 -12 -12z"/>
<path d="M6131 93 c-1 -12 -5 -25 -11 -28 -17 -11 -12 -65 6 -65 12 0 15 7 12
30 -2 16 -2 31 2 32 3 2 3 14 -1 28 -6 23 -7 23 -8 3z"/>
</g>
</svg>
