<?xml version="1.0" standalone="no"?>
<!DOCTYPE svg PUBLIC "-//W3C//DTD SVG 20010904//EN"
 "http://www.w3.org/TR/2001/REC-SVG-20010904/DTD/svg10.dtd">
<svg version="1.0" xmlns="http://www.w3.org/2000/svg"
 width="629.000000pt" height="396.000000pt" viewBox="0 0 629.000000 396.000000"
 preserveAspectRatio="xMidYMid meet">

<g transform="translate(0.000000,396.000000) scale(0.100000,-0.100000)"
fill="#000000" stroke="none">
<path d="M4705 3704 c-264 -40 -556 -85 -650 -99 -93 -13 -366 -54 -605 -90
-239 -36 -538 -81 -665 -100 -126 -19 -336 -50 -465 -70 -129 -19 -284 -42
-345 -51 -135 -19 -174 -36 -199 -89 -18 -36 -21 -72 -27 -435 -18 -945 -32
-1477 -41 -1485 -2 -2 -35 -4 -73 -5 -66 -2 -199 -13 -720 -60 -121 -11 -245
-22 -275 -25 -237 -21 -499 -46 -517 -50 -13 -3 -23 -11 -23 -19 0 -7 -12 -30
-26 -51 -19 -28 -22 -40 -13 -46 12 -7 52 -17 354 -84 94 -21 174 -42 178 -46
5 -4 -29 -10 -75 -13 -109 -9 -144 -16 -128 -26 8 -5 9 -10 2 -14 -14 -9 -21
-65 -26 -228 -2 -78 0 -140 5 -144 5 -3 2 -12 -6 -21 -13 -12 -15 -37 -13
-131 2 -65 -1 -163 -6 -219 l-9 -103 2868 0 2868 0 -7 163 c-3 89 -9 198 -12
242 -4 62 -3 77 6 65 10 -12 11 -12 4 5 -12 34 -22 143 -29 330 -9 254 -24
455 -35 474 -5 9 -10 12 -10 8 0 -5 -7 -1 -16 7 -20 21 -124 21 -339 1 -95 -9
-163 -11 -169 -5 -11 11 -22 238 -35 742 -6 216 -15 483 -21 593 -5 110 -14
362 -20 560 -14 470 -16 505 -31 538 -18 39 -58 57 -121 56 -29 -1 -269 -35
-533 -75z m569 -30 c11 -11 16 -34 16 -77 0 -34 5 -188 10 -342 9 -251 56
-1683 62 -1895 l2 -85 -74 -6 c-41 -4 -151 -12 -245 -19 l-170 -12 -289 116
c-158 64 -292 116 -297 116 -5 0 -9 -6 -9 -14 0 -38 -76 -52 -111 -20 -10 9
-19 28 -19 41 0 22 -3 23 -69 23 l-69 0 -6 183 c-10 292 -27 1810 -20 1816 5
5 1209 187 1256 190 9 1 24 -6 32 -15z m-2601 -686 c32 -16 37 -27 37 -84 0
-56 -13 -76 -75 -114 l-37 -23 -49 23 -49 23 0 62 c0 68 7 80 64 118 40 26 51
26 109 -5z m561 3 c-12 -8 -11 -34 1 -43 5 -4 1 -10 -10 -14 -11 -5 -20 -3
-23 4 -3 9 -9 8 -24 -2 -26 -18 -48 -10 -48 18 0 45 44 62 60 24 9 -23 9 -23
9 -1 1 12 7 23 14 26 15 6 32 -3 21 -12z m-119 -39 c1 -21 -4 -31 -11 -28 -6
2 -17 -1 -23 -7 -8 -8 -11 -6 -11 9 -1 18 -1 18 -11 2 -5 -10 -21 -18 -34 -18
-21 0 -25 5 -25 29 0 33 31 51 54 32 10 -9 15 -8 20 4 11 30 41 13 41 -23z
m-135 3 c-10 -12 -10 -15 1 -16 10 0 11 -2 2 -6 -7 -2 -13 -11 -13 -19 0 -8
-4 -14 -10 -14 -5 0 -10 16 -10 35 0 29 4 35 21 35 18 0 19 -2 9 -15z m-91
-12 c10 -17 10 -17 11 0 0 9 5 17 10 17 6 0 10 -16 10 -35 0 -19 -4 -35 -10
-35 -5 0 -10 5 -10 11 0 6 -7 3 -16 -5 -11 -12 -20 -13 -33 -6 -12 6 -22 5
-29 -2 -9 -9 -12 -9 -12 2 0 10 -5 8 -20 -5 -25 -23 -50 -13 -50 20 0 30 25
43 51 26 16 -9 19 -8 19 5 0 8 4 12 10 9 5 -3 18 -1 27 4 25 14 31 14 42 -6z
m521 -559 c0 -2 -9 -4 -20 -4 -11 0 -20 4 -20 9 0 5 9 7 20 4 11 -3 20 -7 20
-9z m-347 -21 c56 -27 57 -28 57 -70 l0 -43 -70 35 c-67 34 -70 37 -70 70 0
43 8 43 83 8z m-184 -66 c-14 -12 -85 -65 -157 -117 -73 -52 -132 -102 -132
-110 0 -10 3 -11 8 -4 8 13 286 214 296 214 3 0 6 -45 6 -99 l0 -99 -147 -106
c-81 -58 -152 -107 -157 -109 -6 -3 -9 -7 -6 -10 3 -3 75 45 160 107 126 91
156 117 158 139 2 15 5 27 8 27 6 0 368 -181 374 -187 7 -7 -39 -42 -195 -147
-173 -116 -174 -116 -201 -106 -19 8 -24 5 -33 -21 -10 -29 -39 -40 -45 -16
-2 6 -8 27 -14 45 l-11 33 112 83 c147 108 141 105 133 72 -7 -28 -6 -29 18
-20 10 4 16 18 16 38 0 18 5 37 11 43 7 7 3 9 -15 6 -14 -3 -26 -11 -26 -18 0
-6 -59 -54 -132 -105 l-132 -94 -98 52 c-54 28 -98 48 -98 43 0 -4 28 -23 63
-42 38 -21 56 -35 45 -37 -20 -4 -176 41 -240 70 -56 25 -54 29 35 90 90 61
97 70 97 131 l1 52 157 112 c152 109 196 137 141 90z m581 -28 c0 -14 -60 -31
-89 -24 -38 8 -39 17 -5 44 24 19 27 19 60 4 19 -9 34 -20 34 -24z m-290 -10
c0 -5 -4 -9 -10 -9 -5 0 -10 7 -10 16 0 8 5 12 10 9 6 -3 10 -10 10 -16z
m-530 1 c0 -5 -5 -10 -11 -10 -5 0 -7 5 -4 10 3 6 8 10 11 10 2 0 4 -4 4 -10z
m405 -31 c9 -28 -10 -47 -33 -33 -19 12 -27 37 -18 60 8 20 42 2 51 -27z m756
-30 c78 -39 138 -74 133 -78 -19 -17 -220 -144 -229 -145 -31 -3 -325 82 -325
93 0 12 256 201 272 201 5 0 72 -32 149 -71z m-671 31 c56 -28 60 -33 60 -65
0 -19 -2 -35 -5 -35 -3 0 -32 14 -65 30 -56 28 -60 33 -60 65 0 19 2 35 5 35
3 0 32 -14 65 -30z m-517 -13 c4 3 7 2 7 -4 0 -15 -11 -22 -26 -16 -8 3 -14
12 -14 20 0 12 3 13 13 4 8 -6 17 -8 20 -4z m387 -32 c23 -12 30 -22 30 -45
l0 -30 -41 20 c-28 15 -39 26 -35 36 3 9 6 20 6 25 0 12 6 11 40 -6z m-430
-15 c0 -5 -4 -10 -10 -10 -5 0 -10 5 -10 10 0 6 5 10 10 10 6 0 10 -4 10 -10z
m590 -45 c25 -13 41 -35 25 -35 -12 0 -75 35 -75 42 0 12 18 10 50 -7z m-862
-24 c11 -7 10 -10 -3 -15 -20 -7 -38 1 -30 15 7 11 16 11 33 0z m250 -17 c-4
-24 -53 -58 -69 -49 -9 6 -3 16 21 37 39 32 53 35 48 12z m-522 -29 c-16 -15
-26 -35 -26 -52 0 -19 -3 -24 -11 -16 -18 18 29 90 60 93 2 0 -8 -11 -23 -25z
m61 9 c-3 -3 -12 -4 -19 -1 -8 3 -5 6 6 6 11 1 17 -2 13 -5z m53 -36 c0 -4 -6
-10 -12 -14 -7 -4 -10 -3 -5 1 4 5 -1 17 -10 28 -18 19 -17 19 5 6 12 -8 22
-17 22 -21z m-64 2 c8 0 14 -4 14 -10 0 -12 -57 -13 -64 -1 -8 12 6 22 22 16
7 -3 20 -5 28 -5z m294 -50 c0 -5 -4 -10 -10 -10 -5 0 -10 5 -10 10 0 6 5 10
10 10 6 0 10 -4 10 -10z m-123 -36 c-3 -3 -12 -4 -19 -1 -8 3 -5 6 6 6 11 1
17 -2 13 -5z m-120 -105 c60 -35 61 -34 -20 -77 l-38 -20 -60 20 c-52 17 -58
22 -47 36 18 21 89 72 101 72 5 0 34 -14 64 -31z m1228 -94 l7 -64 79 -41 c43
-22 81 -44 84 -49 2 -5 -41 -39 -98 -75 -105 -68 -130 -75 -206 -60 -30 6 -30
7 65 77 84 62 94 72 81 85 -13 13 -23 9 -80 -32 -35 -25 -67 -46 -71 -46 -3 0
-6 16 -6 35 0 19 -2 35 -5 35 -9 0 -95 -64 -95 -71 0 -3 14 -12 30 -19 17 -7
33 -17 36 -22 3 -5 -12 0 -35 11 -52 27 -73 26 -41 -1 l25 -21 -35 8 c-19 4
-52 16 -73 27 l-38 19 68 55 68 56 6 -28 c5 -20 7 -23 8 -9 1 17 3 18 11 5 7
-11 10 -5 10 22 0 29 6 41 26 54 14 10 40 31 57 47 18 16 47 36 65 44 17 7 32
18 32 24 0 5 4 8 9 4 5 -3 13 -34 16 -70z m-940 -162 c30 -15 55 -30 54 -33 0
-3 -20 -19 -44 -37 -32 -23 -51 -31 -71 -27 -21 4 -25 2 -21 -11 5 -11 0 -15
-17 -15 -23 0 -163 43 -173 54 -3 3 2 22 10 43 9 21 16 30 16 21 1 -10 5 -18
10 -18 21 0 41 34 41 70 0 32 6 43 37 69 21 17 43 31 49 31 6 0 19 9 30 21 19
21 19 21 22 -60 l3 -82 54 -26z m739 171 c13 -33 7 -64 -13 -64 -11 0 -22 -6
-24 -12 -3 -7 -6 2 -6 20 -2 55 29 94 43 56z m206 -148 c0 -8 -162 -117 -167
-113 -3 4 156 117 164 117 2 0 3 -2 3 -4z m-1476 -85 c7 -11 -14 -20 -31 -13
-7 2 -10 8 -7 13 7 12 31 12 38 0z m66 -182 c0 -5 -7 -9 -15 -9 -15 0 -20 12
-9 23 8 8 24 -1 24 -14z m380 -8 c0 -5 -7 -14 -15 -21 -16 -14 -18 -10 -9 14
6 17 24 22 24 7z m-1822 -946 c-10 -11 -48 -14 -48 -4 0 5 12 9 27 9 14 0 24
-2 21 -5z m-38 -50 c0 -2 -9 -9 -20 -15 -16 -9 -18 -8 -14 5 5 13 34 22 34 10z"/>
<path d="M4375 3395 c-44 -8 -86 -14 -92 -14 -22 -2 -53 -40 -53 -66 0 -14 9
-31 23 -39 20 -13 36 -13 147 4 69 10 132 21 141 25 35 14 45 77 15 97 -16 11
-88 8 -181 -7z"/>
<path d="M5085 2223 c-16 -2 -115 -12 -220 -23 -463 -49 -661 -71 -672 -75
-14 -5 -18 -91 -5 -98 4 -3 88 3 187 14 99 10 297 30 440 45 143 14 276 29
295 33 34 7 35 8 35 56 0 53 -3 56 -60 48z m-375 -101 c0 -9 -5 -10 -62 -15
-23 -2 -38 2 -38 8 0 7 21 12 50 14 28 1 50 -2 50 -7z"/>
<path d="M2561 2958 c-40 -29 -42 -33 -39 -77 3 -41 7 -48 40 -66 l36 -19 41
28 c38 27 41 32 41 76 0 39 -4 50 -22 62 -44 28 -55 27 -97 -4z m63 -24 c20
-8 21 -57 2 -74 -8 -6 -25 -10 -38 -8 -30 4 -38 56 -12 75 20 15 26 16 48 7z"/>
<path d="M3147 2966 c-6 -14 0 -26 13 -26 3 0 6 9 6 20 0 23 -11 27 -19 6z"/>
<path d="M3015 2950 c-11 -17 5 -32 21 -19 7 6 11 15 8 20 -7 12 -21 11 -29
-1z"/>
<path d="M2857 2933 c-11 -10 -8 -33 4 -33 5 0 7 5 3 11 -3 6 0 15 7 20 8 5 9
9 3 9 -6 0 -14 -3 -17 -7z"/>
<path d="M2760 2910 c0 -13 5 -20 13 -17 6 2 12 10 12 17 0 7 -6 15 -12 18 -8
2 -13 -5 -13 -18z"/>
<path d="M2798 2178 c-43 -67 -25 -122 27 -84 18 13 18 14 -8 9 -23 -5 -27 -2
-27 19 0 13 7 34 16 46 9 13 14 25 11 28 -2 3 -11 -6 -19 -18z"/>
<path d="M2846 2133 c-6 -14 -5 -15 5 -6 7 7 10 15 7 18 -3 3 -9 -2 -12 -12z"/>
<path d="M2885 2038 c-11 -6 -24 -15 -30 -20 -5 -5 -50 -37 -100 -73 -49 -35
-101 -71 -114 -81 l-24 -17 54 -28 c44 -22 57 -25 69 -15 21 17 77 51 68 41
-5 -5 1 -14 12 -22 17 -12 24 -11 60 13 41 27 41 28 18 40 -12 7 -26 10 -30 8
-5 -3 -8 -3 -8 0 0 3 20 19 45 36 25 17 44 36 42 43 -1 7 7 12 17 12 12 0 20
8 22 21 3 15 -6 25 -32 37 -41 20 -43 20 -69 5z m-35 -162 c0 -2 -8 -10 -17
-17 -16 -13 -17 -12 -4 4 13 16 21 21 21 13z"/>
<path d="M2340 1569 c0 -5 5 -7 10 -4 6 3 10 8 10 11 0 2 -4 4 -10 4 -5 0 -10
-5 -10 -11z"/>
<path d="M6125 910 c11 -67 11 -70 -6 -65 -13 5 -19 1 -19 -10 0 -9 4 -13 10
-10 6 4 7 -1 3 -11 -5 -13 -3 -16 10 -11 9 3 17 2 17 -4 0 -6 4 -7 10 -4 6 3
7 -1 4 -9 -3 -9 -2 -16 4 -16 16 0 21 38 7 50 -16 13 -16 49 0 47 5 -1 11 14
13 34 3 30 -2 41 -24 58 -15 11 -30 21 -34 21 -4 0 -2 -32 5 -70z"/>
<path d="M6215 810 c3 -5 8 -10 11 -10 2 0 4 5 4 10 0 6 -5 10 -11 10 -5 0 -7
-4 -4 -10z"/>
<path d="M6110 710 c0 -11 2 -20 4 -20 2 0 6 9 9 20 3 11 1 20 -4 20 -5 0 -9
-9 -9 -20z"/>
<path d="M6110 654 c0 -10 -3 -29 -6 -41 -5 -17 -2 -23 9 -23 11 0 14 9 12 35
-2 38 -15 61 -15 29z"/>
<path d="M6191 564 c0 -11 3 -14 6 -6 3 7 2 16 -1 19 -3 4 -6 -2 -5 -13z"/>
<path d="M6100 553 c0 -10 5 -25 10 -33 7 -11 10 -7 10 18 0 17 -4 32 -10 32
-5 0 -10 -8 -10 -17z"/>
<path d="M6102 463 c-4 -58 8 -138 19 -122 9 14 11 110 2 142 -8 29 -19 19
-21 -20z"/>
<path d="M6070 426 c0 -8 5 -18 10 -21 6 -3 10 1 10 9 0 8 -4 18 -10 21 -5 3
-10 -1 -10 -9z"/>
<path d="M6117 205 c-4 -8 -2 -17 3 -20 6 -4 10 3 10 14 0 25 -6 27 -13 6z"/>
<path d="M6090 90 c0 -5 5 -10 10 -10 7 0 8 -13 5 -34 -7 -36 8 -57 20 -28 13
28 10 48 -7 65 -19 19 -28 21 -28 7z"/>
</g>
</svg>
