<svg width="150" height="51" viewBox="0 0 150 51" fill="none" xmlns="http://www.w3.org/2000/svg">
<g clip-path="url(#clip0_5_677)">
<path d="M15.9491 50.0032H36.8316C38.7479 50.0032 40.5122 48.958 41.4325 47.2776L52.1072 27.7955C52.9675 26.2248 52.9675 24.3237 52.1072 22.7537L41.4325 3.27149C40.5122 1.5911 38.7479 0.545898 36.8316 0.545898H15.9491C14.0328 0.545898 12.2692 1.5911 11.3482 3.27149L0.673605 22.7537C-0.186775 24.3237 -0.186775 26.2248 0.673605 27.7955L11.3482 47.2776C12.2692 48.958 14.0328 50.0032 15.9491 50.0032ZM19.4733 6.97793H33.3075C35.2238 6.97793 36.9881 8.02313 37.9084 9.70352L45.0582 22.7543C45.9192 24.3243 45.9192 26.2255 45.0582 27.7961L37.9084 40.8469C36.9881 42.5273 35.2238 43.5725 33.3075 43.5725H19.4733C17.557 43.5725 15.7927 42.5273 14.8724 40.8469L7.72191 27.7961C6.8609 26.2255 6.8609 24.3243 7.72191 22.7543L14.8724 9.70352C15.7927 8.02313 17.557 6.97793 19.4733 6.97793Z" fill="#1C5DAA"/>
<path d="M10.0371 25.4578C10.0371 21.6813 13.0989 18.6189 16.8754 18.6189C20.6518 18.6189 23.7136 21.6807 23.7136 25.4578C23.7136 29.2349 20.6525 32.296 16.8754 32.296C13.0983 32.296 10.0371 29.2342 10.0371 25.4578Z" fill="white"/>
<path d="M29.0947 25.7064C29.0947 21.93 32.1565 18.8682 35.933 18.8682C39.7094 18.8682 42.7712 21.9293 42.7712 25.7064C42.7712 29.4835 39.7101 32.5447 35.933 32.5447C32.1559 32.5447 29.0947 29.4835 29.0947 25.7064Z" fill="white"/>
<path d="M62.3216 16.4262C67.6996 16.4262 70.6548 19.717 70.6548 24.9007C70.6548 30.6527 67.5482 34.1233 62.1809 34.1233H56.1709V16.4262H62.3216ZM59.8017 31.2816H62.1431C65.2749 31.2816 66.9244 28.9358 66.9244 24.9556C66.9244 21.6667 65.4458 19.3133 62.169 19.3133H59.8017V31.2816ZM77.4155 16.4262V34.1233H73.8081V16.4262H77.4155ZM95.5667 34.1233H92.913C92.79 33.5448 92.6929 32.7305 92.6443 32.0688C91.7341 33.835 89.9585 34.3819 87.74 34.3819C83.1107 34.3819 80.6715 30.5285 80.6715 25.375C80.6715 20.2216 83.5466 16.1909 88.7631 16.1909C92.9774 16.1909 95.1605 18.5443 95.5951 21.5033H92.0558C91.7253 20.3881 90.9551 19.0843 88.555 19.0843C85.4743 19.0843 84.3786 22.0256 84.3786 25.3977C84.3786 28.7699 85.5601 31.5112 88.548 31.5112C91.2131 31.5112 91.9845 29.653 91.9845 27.3809V27.297H88.2875V24.2415H95.5661V34.1233H95.5667ZM102.718 16.4262V34.1233H99.111V16.4262H102.718Z" fill="#1C5DAA"/>
<path d="M117.941 26.4014H110.247V31.165H118.741L118.307 34.1233H106.73V16.4263H118.263V19.4073H110.247V23.4172H117.941V26.4014ZM125.497 34.1233V27.4535C125.497 27.2529 125.465 27.0694 125.345 26.8814L119.746 16.4263H123.81C125.054 19.0913 126.679 22.4685 127.468 24.1173C128.628 21.5999 129.976 18.8838 131.129 16.4263H134.888L129.25 26.8057C129.15 26.9741 129.105 27.1034 129.105 27.3494V34.1233H125.497ZM147.762 26.4014H140.068V31.165H148.562L148.128 34.1233H136.552V16.4263H148.084V19.4073H140.068V23.4172H147.762V26.4014Z" fill="white"/>
<path d="M55.9414 37.0502C56.3413 36.9902 56.8169 36.9448 57.3373 36.9448C58.2797 36.9448 58.9515 37.1631 59.3968 37.5781C59.8491 37.9938 60.1134 38.5817 60.1134 39.4042C60.1134 40.2268 59.8573 40.9124 59.3817 41.3804C58.9061 41.856 58.1214 42.1121 57.1336 42.1121C56.6655 42.1121 56.2738 42.0901 55.9414 42.0522V37.0495V37.0502ZM56.598 41.547C56.7639 41.5772 57.0055 41.5848 57.2616 41.5848C58.6651 41.5848 59.4271 40.7995 59.4271 39.4269C59.4346 38.2278 58.7553 37.4658 57.3676 37.4658C57.0276 37.4658 56.7715 37.4955 56.598 37.5333V41.547Z" fill="white"/>
<path d="M61.6205 36.9827V42.0674H60.9639V36.9827H61.6205Z" fill="white"/>
<path d="M66.6362 41.8414C66.3422 41.9474 65.7619 42.1208 65.075 42.1208C64.3055 42.1208 63.6715 41.9247 63.1732 41.4497C62.7354 41.0271 62.4648 40.3477 62.4648 39.5561C62.4724 38.0397 63.5132 36.9302 65.2182 36.9302C65.8067 36.9302 66.2665 37.0589 66.486 37.1642L66.3277 37.6997C66.0559 37.5792 65.7165 37.4815 65.2037 37.4815C63.9661 37.4815 63.1587 38.251 63.1587 39.5265C63.1587 40.8019 63.9358 41.5784 65.1204 41.5784C65.55 41.5784 65.8445 41.5178 65.9959 41.4421V39.9264H64.9621V39.3984H66.6362V41.842V41.8414Z" fill="white"/>
<path d="M68.2963 36.9827V42.0674H67.6396V36.9827H68.2963Z" fill="white"/>
<path d="M70.4074 37.5416H68.8613V36.9834H72.6258V37.5416H71.0722V42.0681H70.408V37.5416H70.4074Z" fill="white"/>
<path d="M73.4554 40.4677L72.9274 42.0674H72.248L73.9757 36.9827H74.7674L76.5026 42.0674H75.8012L75.2575 40.4677H73.4554ZM75.1225 39.9555L74.6248 38.4915C74.5113 38.1597 74.4362 37.8576 74.3605 37.5636H74.346C74.2703 37.8658 74.1877 38.1748 74.0893 38.4839L73.5916 39.9555H75.1231H75.1225Z" fill="white"/>
<path d="M77.248 36.9827H77.9047V41.5161H80.0777V42.0674H77.248V36.9827Z" fill="white"/>
<path d="M83.0704 37.5416H81.5244V36.9834H85.2889V37.5416H83.7353V42.0681H83.0711V37.5416H83.0704Z" fill="white"/>
<path d="M86.5102 36.9827V39.1096H88.9696V36.9827H89.6331V42.0674H88.9696V39.6837H86.5102V42.0674H85.8535V36.9827H86.5102Z" fill="white"/>
<path d="M91.4281 36.9827V42.0674H90.7715V36.9827H91.4281Z" fill="white"/>
<path d="M92.5739 42.0674V36.9827H93.2904L94.9204 39.5556C95.2976 40.1511 95.5915 40.6872 95.8325 41.2076L95.8482 41.1994C95.7877 40.5213 95.7725 39.9019 95.7725 39.1096V36.9827H96.3907V42.0674H95.7271L94.1117 39.4875C93.7578 38.9217 93.4179 38.3401 93.1618 37.7901L93.139 37.7976C93.1769 38.4391 93.1927 39.0497 93.1927 39.895V42.068H92.5732L92.5739 42.0674Z" fill="white"/>
<path d="M101.407 41.8414C101.113 41.9474 100.532 42.1208 99.8455 42.1208C99.0753 42.1208 98.442 41.9247 97.9437 41.4497C97.5066 41.0271 97.2354 40.3477 97.2354 39.5561C97.2429 38.0397 98.2837 36.9302 99.9887 36.9302C100.577 36.9302 101.037 37.0589 101.257 37.1642L101.098 37.6997C100.826 37.5792 100.487 37.4815 99.9742 37.4815C98.7366 37.4815 97.9292 38.251 97.9292 39.5265C97.9292 40.8019 98.7063 41.5784 99.8909 41.5784C100.32 41.5784 100.615 41.5178 100.765 41.4421V39.9264H99.732V39.3984H101.406V41.842L101.407 41.8414Z" fill="white"/>
<path d="M102.32 41.2675C102.614 41.4492 103.044 41.5993 103.496 41.5993C104.168 41.5993 104.56 41.2455 104.56 40.732C104.56 40.2564 104.288 39.9845 103.602 39.7209C102.772 39.4263 102.258 38.9967 102.258 38.2796C102.258 37.4873 102.915 36.8994 103.903 36.8994C104.424 36.8994 104.802 37.0199 105.027 37.1479L104.847 37.6835C104.681 37.5933 104.341 37.4419 103.881 37.4419C103.188 37.4419 102.923 37.8563 102.923 38.2039C102.923 38.6795 103.233 38.9135 103.934 39.1841C104.795 39.5165 105.232 39.9316 105.232 40.6784C105.232 41.4625 104.652 42.1418 103.452 42.1418C102.962 42.1418 102.426 41.998 102.154 41.8176L102.32 41.2663L102.32 41.2675Z" fill="white"/>
<path d="M107.727 37.0433C108.043 36.991 108.458 36.9456 108.987 36.9456C109.635 36.9456 110.11 37.0957 110.412 37.3675C110.692 37.6091 110.858 37.9788 110.858 38.4317C110.858 38.8846 110.722 39.2536 110.465 39.5179C110.119 39.8875 109.553 40.0755 108.912 40.0755C108.716 40.0755 108.534 40.0679 108.384 40.0301V42.0675H107.727V37.0427L107.727 37.0433ZM108.383 39.4952C108.526 39.533 108.707 39.5475 108.926 39.5475C109.718 39.5475 110.201 39.1634 110.201 38.4613C110.201 37.7593 109.725 37.4659 109.001 37.4659C108.715 37.4659 108.495 37.488 108.383 37.5183V39.4945V39.4952Z" fill="white"/>
<path d="M111.739 36.9827H112.396V41.5161H114.569V42.0674H111.739V36.9827Z" fill="white"/>
<path d="M116.122 40.4677L115.594 42.0674H114.915L116.643 36.9827H117.434L119.17 42.0674H118.468L117.924 40.4677H116.122ZM117.789 39.9555L117.292 38.4915C117.178 38.1597 117.103 37.8576 117.028 37.5636H117.013C116.937 37.8658 116.855 38.1748 116.756 38.4839L116.259 39.9555H117.79H117.789Z" fill="white"/>
<path d="M120.3 37.5416H118.754V36.9834H122.518V37.5416H120.965V42.0681H120.301V37.5416H120.3Z" fill="white"/>
<path d="M125.716 39.6838H123.739V41.5168H125.941V42.0681H123.082V36.9834H125.828V37.5334H123.739V39.1407H125.715V39.6844L125.716 39.6838Z" fill="white"/>
<path d="M126.793 36.9827H129.532V37.5327H127.45V39.2226H129.373V39.7663H127.45V42.0674H126.794V36.9827H126.793Z" fill="white"/>
<path d="M134.812 39.4729C134.812 41.2227 133.748 42.1506 132.451 42.1506C131.153 42.1506 130.165 41.1092 130.165 39.5707C130.165 37.9566 131.169 36.9006 132.526 36.9006C133.883 36.9006 134.812 37.9641 134.812 39.4736V39.4729ZM130.866 39.5556C130.866 40.6418 131.455 41.6151 132.488 41.6151C133.521 41.6151 134.118 40.6569 134.118 39.502C134.118 38.4908 133.59 37.4349 132.496 37.4349C131.403 37.4349 130.866 38.4385 130.866 39.5549V39.5556Z" fill="white"/>
<path d="M135.663 37.0502C135.996 36.9827 136.47 36.9448 136.923 36.9448C137.625 36.9448 138.077 37.0729 138.394 37.3592C138.651 37.5857 138.794 37.9326 138.794 38.325C138.794 38.9967 138.372 39.4414 137.836 39.6225V39.6452C138.228 39.7808 138.462 40.1429 138.584 40.6708C138.749 41.3804 138.87 41.8706 138.976 42.0667H138.297C138.214 41.9229 138.1 41.4864 137.957 40.8525C137.805 40.1504 137.535 39.8868 136.939 39.8641H136.32V42.0674H135.664V37.0502H135.663ZM136.32 39.3664H136.991C137.693 39.3664 138.138 38.981 138.138 38.4007C138.138 37.7446 137.663 37.457 136.969 37.4501C136.652 37.4501 136.425 37.4804 136.32 37.5106V39.3664H136.32Z" fill="white"/>
<path d="M144.007 39.8338C143.969 39.1254 143.924 38.2726 143.931 37.6387H143.909C143.735 38.2348 143.525 38.8681 143.267 39.5701L142.37 42.0371H141.872L141.049 39.6155C140.808 38.899 140.604 38.2423 140.461 37.6393H140.446C140.431 38.2732 140.393 39.1254 140.348 39.8874L140.212 42.0674H139.586L139.94 36.9827H140.778L141.645 39.4421C141.857 40.0678 142.031 40.626 142.159 41.154H142.181C142.31 40.6418 142.491 40.0829 142.717 39.4421L143.622 36.9827H144.46L144.777 42.0674H144.135L144.007 39.8338Z" fill="white"/>
<path d="M148.42 39.6838H146.443V41.5168H148.645V42.0681H145.786V36.9834H148.532V37.5334H146.443V39.1407H148.419V39.6844L148.42 39.6838Z" fill="white"/>
</g>
<defs>
<clipPath id="clip0_5_677">
<rect width="149.494" height="49.4529" fill="white" transform="translate(0 0.559082)"/>
</clipPath>
</defs>
</svg>
