<svg width="40" height="41" viewBox="0 0 40 41" fill="none" xmlns="http://www.w3.org/2000/svg">
<g clip-path="url(#clip0_1_2711)">
<path fill-rule="evenodd" clip-rule="evenodd" d="M10 0.559082C15.5228 0.559082 20 5.03623 20 10.5591V0.559082H30C35.5228 0.559082 40 5.03623 40 10.5591C40 16.0819 35.5228 20.5591 30 20.5591C35.5228 20.5591 40 25.0363 40 30.5591C40 33.3014 38.8961 35.7859 37.1085 37.5925L37.0711 37.6302L37.0379 37.6632C35.2309 39.4534 32.7446 40.5591 30 40.5591C27.2741 40.5591 24.8029 39.4684 22.999 37.6996C22.9756 37.6766 22.9522 37.6534 22.9289 37.6302C22.907 37.6083 22.8852 37.5863 22.8635 37.5642C21.0924 35.76 20 33.2871 20 30.5591C20 36.0819 15.5228 40.5591 10 40.5591C4.47715 40.5591 0 36.0819 0 30.5591V20.5591H10C4.47715 20.5591 0 16.0819 0 10.5591C0 5.03623 4.47715 0.559082 10 0.559082ZM18 10.5591C18 14.9774 14.4183 18.5591 10 18.5591V2.55908C14.4183 2.55908 18 6.1408 18 10.5591ZM38 30.5591C38 26.1408 34.4183 22.5591 30 22.5591C25.5817 22.5591 22 26.1408 22 30.5591H38ZM2 22.5591V30.5591C2 34.9774 5.58172 38.5591 10 38.5591C14.4183 38.5591 18 34.9774 18 30.5591V22.5591H2ZM22 18.5591V2.55908H30C34.4183 2.55908 38 6.1408 38 10.5591C38 14.9774 34.4183 18.5591 30 18.5591H22Z" fill="#263238"/>
</g>
<defs>
<clipPath id="clip0_1_2711">
<rect width="40" height="40" fill="white" transform="translate(0 0.559082)"/>
</clipPath>
</defs>
</svg>
