<svg width="48" height="49" viewBox="0 0 48 49" fill="none" xmlns="http://www.w3.org/2000/svg">
<g clip-path="url(#clip0_1_2720)">
<path d="M44.9963 13.9703C44.9963 14.0042 44.9963 14.0464 44.9875 14.0718C44.9434 14.4015 44.9434 14.7312 44.9698 15.0693C44.9875 15.1538 45.0051 15.2384 45.0756 15.306C45.19 15.4328 45.3662 15.4074 45.4367 15.2553C45.4719 15.1792 45.4719 15.1031 45.4543 15.027C45.3662 14.7058 45.3486 14.3677 45.3398 14.038C45.3398 14.0211 45.3398 13.9957 45.3398 13.9703C45.4367 13.9619 45.5248 13.9534 45.604 13.9534C45.6657 13.945 45.7185 13.9365 45.7626 13.9112C45.8946 13.8435 45.8946 13.6998 45.7537 13.6322C45.7009 13.6068 45.6304 13.5984 45.5688 13.5984C45.3486 13.6068 45.1284 13.6068 44.9082 13.6068C44.829 13.6068 44.7497 13.6153 44.6704 13.6238C44.6263 13.6322 44.5735 13.6322 44.5383 13.6576C44.4766 13.6829 44.4414 13.7252 44.4414 13.7844C44.4502 13.8435 44.4766 13.8774 44.5383 13.9027C44.5735 13.9281 44.6175 13.9365 44.6616 13.9365C44.7672 13.945 44.8818 13.9619 44.9963 13.9703ZM47.4184 14.3592C47.4184 14.3677 47.4272 14.3761 47.4272 14.3761C47.4624 14.6044 47.4977 14.8241 47.5241 15.0439C47.5329 15.12 47.5417 15.1876 47.5946 15.2468C47.709 15.3905 47.8852 15.3736 47.9645 15.2215C47.9997 15.1454 48.0085 15.0693 47.9909 14.9848C47.9381 14.7312 47.9116 14.4775 47.8588 14.2324C47.8235 14.0802 47.7795 13.9365 47.7355 13.8013C47.709 13.7167 47.6474 13.6576 47.5417 13.6491C47.436 13.6322 47.3567 13.6829 47.3127 13.759C47.2599 13.8266 47.2158 13.8943 47.1806 13.9703C47.1189 14.1056 47.0661 14.2409 46.9957 14.3677C46.9868 14.4015 46.978 14.4268 46.9604 14.4522C46.9516 14.4353 46.9428 14.4268 46.9428 14.4268C46.8283 14.2155 46.7226 14.0042 46.6081 13.8013C46.5904 13.7844 46.5817 13.7675 46.5729 13.7506C46.52 13.6745 46.4584 13.6322 46.3615 13.6322C46.2734 13.6407 46.2029 13.6914 46.1589 13.7675C46.1413 13.8013 46.1413 13.8266 46.1325 13.8604C46.0972 14.131 46.0532 14.4015 46.018 14.672C46.0003 14.8241 45.9915 14.9763 45.9915 15.1285C45.9827 15.1623 45.9915 15.2045 46.0091 15.2384C46.0268 15.306 46.0796 15.3483 46.1501 15.3567C46.2381 15.3652 46.2998 15.3398 46.3262 15.2722C46.3526 15.2215 46.3615 15.1792 46.3703 15.1369C46.4055 14.9848 46.4319 14.8411 46.4584 14.6973C46.476 14.6128 46.4848 14.5452 46.5112 14.4522C46.5288 14.486 46.5464 14.5114 46.5641 14.5367C46.6433 14.6382 46.7226 14.7396 46.8195 14.8241C46.9164 14.8918 46.9957 14.8833 47.0749 14.8072C47.0925 14.7903 47.1013 14.7819 47.1189 14.765C47.1982 14.6466 47.2951 14.5283 47.3743 14.4099C47.392 14.393 47.4008 14.3761 47.4184 14.3592Z" fill="#3A3B7B"/>
<path d="M27.1247 14.1364C27.0634 14.2971 27.0518 14.4128 27.08 14.509C27.1113 14.6399 27.1923 14.6827 27.3023 14.6494C28.3368 14.4039 30.6054 15.1008 31.4453 15.295C31.6433 15.3358 31.8045 15.0904 31.6693 14.8704C31.472 14.6573 29.2045 13.745 28.3393 13.6953C28.0002 13.6769 27.3939 13.5934 27.1247 14.1364Z" fill="#3A3B7B"/>
<path d="M35.9906 11.1834C36.1008 11.2445 36.1625 11.3028 36.1929 11.3679C36.2382 11.4533 36.2143 11.5123 36.1382 11.5425C35.4543 11.8628 34.5443 13.2419 34.177 13.7175C34.088 13.827 33.8826 13.7634 33.8516 13.5834C33.8579 13.38 34.6646 11.8834 35.1148 11.4758C35.2917 11.3166 35.584 11.0043 35.9906 11.1834Z" fill="#3A3B7B"/>
<path d="M30.544 10.5045C30.6764 10.4087 30.8141 10.3751 30.8844 10.4374C31.9162 11.2843 32.4633 12.6254 32.8021 13.8532C32.8149 13.8818 32.8157 13.9228 32.8055 13.9657C32.8012 14.0023 32.7734 14.0409 32.7291 14.0708C32.6819 14.1039 32.6412 14.1139 32.622 14.0855C32.1698 13.4951 29.5871 11.1983 30.544 10.5045Z" fill="#3A3B7B"/>
<path d="M8.69524 25.1876C8.94253 25.0109 9.21137 24.8638 9.49586 24.7496C9.7935 24.6679 10.1107 24.6814 10.3997 24.7882C10.6885 24.895 10.9334 25.0891 11.0971 25.3413C11.2435 25.5928 11.3008 25.8832 11.2604 26.1687C11.2199 26.4541 11.084 26.7193 10.8729 26.9242C10.7093 27.0903 10.5235 27.235 10.3205 27.3545C9.41582 27.9155 8.50308 28.4456 7.59039 29.0066C7.40363 29.147 7.20551 29.2729 6.99793 29.3831C6.68217 29.5343 6.32132 29.5747 5.97776 29.4976C5.6342 29.4204 5.32955 29.2304 5.11648 28.9605C4.95719 28.7694 4.82277 28.5604 4.71616 28.3381C3.8515 26.5938 2.95481 24.8572 2.12217 23.0821C1.73787 22.3137 1.42563 21.43 1.12139 20.5771C0.989767 20.3293 0.964063 20.042 1.04976 19.7762C1.13545 19.5105 1.32577 19.2873 1.58025 19.1542C1.83473 19.021 2.13327 18.9885 2.4124 19.0634C2.69152 19.1382 2.92921 19.3147 3.0749 19.5551C3.52271 20.1263 3.91911 20.733 4.25981 21.3686C5.12448 22.9054 5.94912 24.4422 6.78176 25.9329C6.83024 26.0153 6.8837 26.0948 6.94188 26.1711C7.56859 25.9182 8.15803 25.5876 8.69524 25.1876Z" fill="#3A3B7B"/>
<path d="M17.6352 24.6514C15.6577 26.8721 12.3432 26.3112 10.6779 23.4527C9.49295 21.4241 9.28481 18.0738 11.8628 15.9606C12.4133 15.5182 13.0716 15.2169 13.7763 15.0846C14.6403 14.9658 15.5213 15.1121 16.2935 15.5026C17.0656 15.8932 17.6894 16.508 18.0756 17.2593C19.4847 19.7182 19.2845 22.8533 17.6352 24.6514ZM16.8346 19.4723C16.6245 18.868 16.2031 18.3522 15.6417 18.0123C15.324 17.795 14.938 17.6893 14.5487 17.7131C14.1594 17.7369 13.7905 17.8887 13.5041 18.1429C12.3592 19.1188 12.119 21.4318 12.9516 22.8072C13.0578 23.0315 13.2136 23.2308 13.4084 23.3913C13.6032 23.5517 13.8321 23.6693 14.0792 23.7359C14.3263 23.8025 14.5855 23.8165 14.8389 23.7769C15.0922 23.7372 15.3334 23.6449 15.5457 23.5065C16.1663 23.0446 16.6216 22.4087 16.8483 21.6872C17.075 20.9655 17.0618 20.1941 16.8107 19.48L16.8346 19.4723Z" fill="#3A3B7B"/>
<path d="M25.706 20.4406C25.5036 20.4823 25.2944 20.4848 25.0909 20.4479C24.8875 20.4109 24.6937 20.3353 24.5212 20.2254C24.3702 20.1425 24.2402 20.0286 24.1405 19.8917C24.041 19.7548 23.9742 19.5984 23.9451 19.4338C23.916 19.2692 23.9253 19.1005 23.9723 18.9397C24.0193 18.779 24.1029 18.6302 24.2169 18.5041C24.4157 18.2508 24.6978 18.0694 25.0175 17.9893C25.8523 17.7568 26.7117 17.615 27.5795 17.5667C27.7702 17.5454 27.9634 17.5609 28.1477 17.6123C28.332 17.6637 28.5038 17.7498 28.653 17.8658C28.8021 17.9818 28.9257 18.1252 29.0163 18.2876C29.1069 18.45 29.1628 18.6281 29.1807 18.8115C29.4309 19.7125 29.4583 20.6572 29.2608 21.5702C28.5403 24.5209 26.0583 25.5351 23.2722 24.59C22.4901 24.3373 21.8044 23.8664 21.3027 23.2376C20.6335 22.4803 20.1591 21.5828 19.9176 20.6173C19.7219 19.7575 19.7433 18.8654 19.9801 18.0152C20.2169 17.1651 20.6621 16.3816 21.2786 15.7302C21.8637 15.0222 22.6231 14.465 23.4884 14.1088C24.0351 13.8196 24.6749 13.7374 25.2818 13.8783C25.4194 13.9149 25.5443 13.9861 25.6436 14.0847C25.743 14.1832 25.813 14.3055 25.8465 14.4387C25.88 14.572 25.8757 14.7115 25.8341 14.8426C25.7925 14.9738 25.7152 15.0919 25.61 15.1846C25.4101 15.3583 25.1929 15.5128 24.9615 15.6457C24.2497 16.0807 23.6303 16.6413 23.1361 17.2977C22.8121 17.7225 22.589 18.2103 22.4825 18.7267C22.3759 19.2431 22.3886 19.7757 22.5196 20.2869C22.7012 20.984 23.1041 21.6097 23.6725 22.0773C25.4338 23.6141 27.7236 22.1311 27.3233 20.0333C26.7389 20.1716 26.2265 20.3176 25.706 20.4406Z" fill="#3A3B7B"/>
<path d="M36.4656 24.7744C33.8637 26.3113 30.9014 24.7744 30.2528 21.5471C29.7805 19.2419 30.6772 16.0145 33.8156 14.785C34.4834 14.5291 35.2077 14.4392 35.9212 14.5238C36.7786 14.6744 37.5651 15.0795 38.1698 15.682C38.7745 16.2844 39.167 17.0538 39.2918 17.8818C39.8202 20.625 38.6193 23.5527 36.4656 24.7744ZM37.3704 19.603C37.3696 18.9647 37.1343 18.347 36.7059 17.8587C36.4769 17.5567 36.1458 17.3403 35.7691 17.2464C35.3924 17.1525 34.9935 17.187 34.6402 17.3439C33.2312 17.9278 32.2384 20.0487 32.5987 21.6086C32.6262 21.8534 32.7091 22.0895 32.8415 22.3003C32.974 22.5112 33.1529 22.6917 33.3657 22.8293C33.5784 22.9669 33.8199 23.0582 34.0732 23.0969C34.3266 23.1355 34.5857 23.1206 34.8324 23.0532C35.5772 22.8035 36.2221 22.3368 36.6771 21.7182C37.1321 21.0996 37.3745 20.3601 37.3704 19.603Z" fill="#3A3B7B"/>
<path d="M41.9237 25.42C41.8844 25.7012 41.7304 25.956 41.4954 26.1282C41.2604 26.3003 40.9637 26.3759 40.6707 26.3382C40.3777 26.3005 40.1123 26.1526 39.9329 25.9271C39.7534 25.7016 39.6747 25.4169 39.714 25.1357C39.7533 24.8544 39.9074 24.5997 40.1423 24.4275C40.3773 24.2553 40.6739 24.1797 40.9669 24.2174C41.26 24.2551 41.5254 24.403 41.7048 24.6285C41.8842 24.854 41.963 25.1388 41.9237 25.42ZM41.2271 15.0541C41.3794 14.8309 41.6028 14.6609 41.864 14.5695C42.1251 14.4781 42.41 14.4702 42.6763 14.5469C42.9469 14.6119 43.186 14.7642 43.3537 14.9782C43.5213 15.1922 43.6071 15.455 43.597 15.7226C43.5617 16.1518 43.4948 16.578 43.3968 16.9981C43.1326 18.4197 42.8764 19.8413 42.5962 21.2475C42.4681 21.8084 42.3 22.3463 42.1158 22.9149C42.0518 23.0927 41.9447 23.2533 41.8036 23.3837C41.7159 23.4817 41.6038 23.5569 41.4777 23.6024C41.3516 23.6478 41.2156 23.662 41.0824 23.6436C40.9491 23.6252 40.8227 23.5749 40.7151 23.4972C40.6075 23.4195 40.522 23.317 40.4666 23.1993C40.3714 22.988 40.3197 22.7609 40.3144 22.5307C40.3144 21.5779 40.3144 20.6174 40.3785 19.6568C40.4873 18.2861 40.7014 16.9248 41.019 15.5843C41.0564 15.4047 41.1268 15.2329 41.2271 15.0771V15.0541Z" fill="#3A3B7B"/>
<path fill-rule="evenodd" clip-rule="evenodd" d="M5.31239 31.5947C5.21786 31.7972 5.19193 32.023 5.23813 32.2404C5.26886 32.5268 5.33636 32.8086 5.43909 33.0792C5.56734 33.4106 5.71086 33.7383 5.88782 34.1422C5.92852 34.2351 5.97105 34.3321 6.01555 34.4342C6.25419 34.9814 6.55362 35.6807 6.95302 36.6927C7.06607 36.9802 7.16645 37.2701 7.26754 37.5619C7.30838 37.6798 7.34936 37.7981 7.39131 37.9167C7.54169 38.3383 7.80043 38.717 8.14339 39.0171C8.28903 39.1821 8.4822 39.3023 8.6988 39.3624C8.91963 39.4237 9.1545 39.4198 9.37298 39.3513C9.59146 39.2827 9.78336 39.1526 9.92375 38.9778C10.0614 38.8065 10.1432 38.6001 10.1592 38.3845C10.2485 37.9644 10.218 37.5288 10.0708 37.1238C9.83721 36.4513 9.57112 35.7778 9.26428 35.1191L9.26287 35.1162C8.75809 34.0857 8.24498 33.0622 7.7076 32.0384L7.70357 32.0312C7.54626 31.7645 7.34181 31.526 7.09943 31.3266C6.94207 31.1486 6.72502 31.0285 6.48532 30.9871C6.24051 30.9448 5.98803 30.9874 5.77294 31.1073C5.56947 31.2188 5.40818 31.3895 5.31239 31.5947Z" fill="#3A3B7B"/>
<path fill-rule="evenodd" clip-rule="evenodd" d="M13.0224 29.0571C12.2309 28.8603 11.4043 28.8317 10.6002 28.9731C9.97737 29.032 9.36482 29.1699 8.93947 29.443C8.72314 29.582 8.54823 29.7605 8.45094 29.9873C8.35311 30.2154 8.34063 30.4763 8.42079 30.767C8.56717 31.2994 8.75725 31.817 8.94666 32.333L8.97734 32.4166L8.97808 32.4184C9.54839 33.9175 10.1241 35.4114 10.7051 36.9003C10.7729 37.1349 10.8687 37.3612 10.9906 37.5747L10.9929 37.5787C11.154 37.8439 11.3606 38.0811 11.604 38.2803C11.7257 38.3899 11.8762 38.4657 12.0395 38.4995C12.2043 38.5337 12.3757 38.5238 12.535 38.4708C12.6944 38.4179 12.8356 38.324 12.9431 38.1993C13.049 38.0766 13.1182 37.9288 13.1437 37.7716C13.2487 37.3444 13.2151 36.8965 13.0472 36.4881C12.9948 36.3507 12.9537 36.2103 12.9104 36.0624C12.896 36.0131 12.8814 35.963 12.8659 35.9119C14.1958 35.413 15.6109 34.7421 16.1085 33.1813C16.3033 32.642 16.3195 32.058 16.1549 31.5094C15.9901 30.9601 15.6521 30.4733 15.1873 30.116C14.5548 29.6157 13.8159 29.2543 13.0224 29.0571ZM10.8285 30.9714C10.8547 30.9642 10.881 30.9574 10.9075 30.9512C11.7733 30.8205 12.6591 30.9946 13.4019 31.4412C13.7292 31.6597 13.8633 31.9024 13.8863 32.136C13.9101 32.3765 13.8189 32.6371 13.6359 32.8877C13.2901 33.3609 12.6589 33.7397 12.0888 33.8102C11.6732 32.8916 11.2511 31.9358 10.8285 30.9714Z" fill="#3A3B7B"/>
<path d="M18.2989 27.3756C19.2414 26.9578 20.409 26.8857 21.3226 27.1794C21.5527 27.2437 21.7523 27.3829 21.8873 27.573C22.0215 27.762 22.0834 27.9897 22.0627 28.2174C22.0613 28.3651 22.0235 28.5105 21.9524 28.6417C21.8801 28.7752 21.7752 28.89 21.6469 28.9765C21.5185 29.0629 21.3703 29.1185 21.2149 29.1383C21.0594 29.1582 20.9012 29.1419 20.7537 29.0907L20.7425 29.0868L20.732 29.0814C20.6565 29.0435 20.5763 29.015 20.4934 28.9964L20.4882 28.9953C19.8455 28.8314 19.2393 29.1029 19.0178 29.4365C18.9122 29.5955 18.8991 29.7561 18.9871 29.9021C19.0813 30.0585 19.3123 30.234 19.7798 30.3591C19.9084 30.393 20.0402 30.4257 20.1739 30.4589C20.5436 30.5508 20.9278 30.6462 21.2993 30.7785L21.3007 30.779C23.0146 31.4049 23.6528 32.7012 23.4343 33.9203C23.2181 35.126 22.169 36.2233 20.5914 36.4821C20.0173 36.6042 19.4199 36.5804 18.8582 36.4131C18.2952 36.2452 17.7876 35.9389 17.386 35.5245L17.3756 35.5137C17.2488 35.3576 17.1635 35.1741 17.1257 34.9795C17.091 34.8038 17.1093 34.6223 17.1784 34.4563C17.2472 34.2913 17.3635 34.1484 17.5136 34.0444C17.6721 33.9264 17.8632 33.8556 18.0632 33.8409C18.2625 33.8262 18.462 33.8677 18.6371 33.9604C18.8119 34.0415 18.9745 34.1449 19.1205 34.2679L19.1232 34.2701C19.3815 34.4968 19.6939 34.5558 19.9935 34.5011C20.2974 34.4456 20.5833 34.273 20.7671 34.044C20.9497 33.8164 21.023 33.546 20.936 33.2836C20.8485 33.0192 20.5852 32.723 20.0068 32.4754C19.8556 32.4138 19.6988 32.3641 19.5357 32.3157C19.4917 32.3027 19.447 32.2897 19.4017 32.2765C19.2812 32.2414 19.1571 32.2052 19.0354 32.1653C18.9516 32.1379 18.8685 32.1119 18.7862 32.0862C18.5612 32.0158 18.3418 31.9473 18.1307 31.8553C17.6713 31.7052 17.2743 31.4169 16.999 31.0331C16.7225 30.6478 16.5834 30.1871 16.6023 29.7196C16.6038 28.5805 17.3513 27.7957 18.2989 27.3756Z" fill="#3A3B7B"/>
<path d="M30.2489 27.2541C30.0661 27.1684 29.864 27.1278 29.6608 27.1357C29.4576 27.1438 29.2597 27.2002 29.0849 27.3001C28.9112 27.3992 28.7658 27.538 28.6616 27.7041C28.566 27.8441 28.4999 28.0005 28.4669 28.1649C28.4339 28.329 28.4347 28.4978 28.4692 28.6615C28.5032 28.8721 28.541 29.0768 28.5782 29.2786C28.6399 29.6127 28.7 29.9393 28.7396 30.2723L28.741 30.2807C28.8312 30.8029 28.8784 31.3311 28.8827 31.8603L28.8831 31.8678C28.9139 32.4394 28.711 32.9998 28.3178 33.4302L28.3116 33.4378C28.1837 33.5952 28.0127 33.7153 27.8176 33.7847C27.6226 33.8541 27.4114 33.87 27.2075 33.8307C27.0036 33.7914 26.8151 33.6985 26.6631 33.5623C26.5111 33.426 26.4015 33.2514 26.3467 33.0589C26.2299 32.6531 26.1623 32.2357 26.1451 31.815L26.3447 28.7659C26.3476 28.7261 26.351 28.6852 26.3544 28.6439C26.362 28.5513 26.3698 28.457 26.373 28.369C26.3777 28.2396 26.3737 28.1065 26.3422 27.9804C26.3101 27.8517 26.2489 27.7291 26.1404 27.6248C26.033 27.5215 25.8879 27.4453 25.7055 27.3935C25.3754 27.3018 25.0964 27.3047 24.8639 27.3994C24.6312 27.4941 24.4718 27.6699 24.359 27.8731C24.2471 28.0745 24.1752 28.313 24.1208 28.5518C24.0805 28.729 24.048 28.9151 24.0172 29.0922C24.0065 29.1532 23.9961 29.2131 23.9856 29.2713L23.9853 29.273C23.8204 30.2443 23.7713 31.2304 23.839 32.2123C23.8516 32.743 23.9669 33.2667 24.1791 33.7569C24.4185 34.3894 24.852 34.9373 25.4225 35.3285C25.9942 35.7205 26.6765 35.9365 27.3789 35.9479C28.0814 35.9593 28.7709 35.7656 29.3561 35.3924C29.9404 35.0199 30.3932 34.4859 30.6546 33.8611C31.0203 33.0653 31.1921 32.1997 31.1566 31.3305C31.1352 30.696 31.0992 30.0565 31.0634 29.4203C31.0458 29.1082 31.0283 28.7968 31.0126 28.4873C31.0046 28.1769 30.898 27.8763 30.7069 27.6258C30.5887 27.4674 30.4313 27.3397 30.2489 27.2541Z" fill="#3A3B7B"/>
<path d="M36.7175 32.0353C36.699 32.0579 36.6794 32.0813 36.659 32.1057C36.5104 31.2826 36.3726 30.4598 36.2346 29.6357C36.1851 29.3401 36.1354 29.0431 36.0853 28.7471L36.0797 28.714L36.0614 28.6855C36.027 28.6318 36.0236 28.5791 36.0236 28.4668V28.4538L36.0215 28.441C35.9842 28.2091 35.8748 27.9932 35.7079 27.8217C35.5413 27.6507 35.3251 27.5316 35.0872 27.48C34.8497 27.4237 34.6001 27.4361 34.3699 27.5156C34.1403 27.5949 33.9401 27.7374 33.7944 27.9252C33.6733 28.0694 33.574 28.2293 33.4996 28.4001C33.3307 28.7682 33.1604 29.1371 32.9896 29.5071L32.9866 29.5135C32.5602 30.437 32.1309 31.3668 31.7141 32.3039L31.7128 32.307C31.4569 32.9146 31.2457 33.5548 31.0352 34.1931C30.9932 34.3205 30.9511 34.4478 30.9088 34.5748C30.8328 34.7762 30.7995 34.9902 30.8109 35.2041C30.7971 35.3955 30.8448 35.5865 30.9478 35.7512C31.0528 35.9193 31.2102 36.0515 31.3976 36.1293C31.5962 36.2129 31.8182 36.2307 32.0286 36.1798C32.2385 36.129 32.4248 36.0127 32.5584 35.8492C32.7289 35.6479 32.8756 35.4283 32.9953 35.1956C33.3484 34.5024 33.6859 33.8007 34.0218 33.1021C34.1518 32.8319 34.2781 32.5898 34.4217 32.3263C34.4316 32.3588 34.4417 32.3905 34.4521 32.4222C34.6027 33.0586 34.8569 33.6681 35.2053 34.2285C35.2712 34.3472 35.3631 34.4509 35.4745 34.5326C35.5873 34.6152 35.7175 34.6732 35.856 34.7027C35.9946 34.7321 36.1381 34.7323 36.2767 34.7031C36.4151 34.6739 36.5457 34.6159 36.6585 34.5336L36.8819 34.3731L38.6158 32.9714L38.5132 33.5986C38.3725 34.4606 38.2328 35.3154 38.0844 36.1705C37.9874 36.5495 37.9875 36.9453 38.0849 37.3242C38.127 37.5374 38.2344 37.7336 38.3934 37.888C38.5538 38.0436 38.7591 38.1493 38.9828 38.1915C39.2065 38.2336 39.4383 38.2103 39.648 38.1244C39.8547 38.0399 40.0305 37.8984 40.1533 37.7182C40.4392 37.3777 40.6171 36.9656 40.666 36.5308C40.7396 35.9168 40.8227 35.2944 40.9059 34.6722C41.0017 33.9551 41.0976 33.2381 41.1785 32.5349L41.1787 32.5328C41.2566 31.763 41.2943 30.9901 41.2917 30.2167C41.3087 29.9723 41.2453 29.7289 41.1102 29.5208C40.9747 29.312 40.7739 29.1496 40.5366 29.0568C40.2898 28.9491 40.0135 28.9203 39.7484 28.9747C39.485 29.0288 39.2466 29.162 39.0677 29.3551C38.7479 29.639 38.4479 29.9427 38.1696 30.2644L38.1677 30.2666C37.8639 30.63 37.5621 31.0004 37.2624 31.3685C37.0801 31.5923 36.8983 31.8155 36.7175 32.0353Z" fill="#3A3B7B"/>
</g>
<defs>
<clipPath id="clip0_1_2720">
<rect width="47" height="29" fill="white" transform="translate(1 10.4058)"/>
</clipPath>
</defs>
</svg>
