<svg width="121" height="40" viewBox="0 0 121 40" fill="none" xmlns="http://www.w3.org/2000/svg">
<g clip-path="url(#clip0_5_252)">
<path d="M12.901 39.9929H29.7918C31.3418 39.9929 32.7688 39.1475 33.5132 37.7883L42.1474 22.0302C42.8433 20.7598 42.8433 19.222 42.1474 17.9521L33.5132 2.19396C32.7688 0.834773 31.3418 -0.0106354 29.7918 -0.0106354H12.901C11.351 -0.0106354 9.92446 0.834773 9.17956 2.19396L0.545376 17.9521C-0.150542 19.222 -0.150542 20.7598 0.545376 22.0302L9.17956 37.7883C9.92446 39.1475 11.351 39.9929 12.901 39.9929ZM15.7515 5.19192H26.9413C28.4913 5.19192 29.9183 6.03732 30.6627 7.39651L36.4459 17.9526C37.1423 19.2225 37.1423 20.7603 36.4459 22.0307L30.6627 32.5868C29.9183 33.946 28.4913 34.7914 26.9413 34.7914H15.7515C14.2015 34.7914 12.7745 33.946 12.0301 32.5868L6.2464 22.0307C5.54997 20.7603 5.54997 19.2225 6.2464 17.9526L12.0301 7.39651C12.7745 6.03732 14.2015 5.19192 15.7515 5.19192Z" fill="#1C5DAA"/>
<path d="M8.11914 20.1393C8.11914 17.0847 10.5957 14.6076 13.6503 14.6076C16.7049 14.6076 19.1814 17.0842 19.1814 20.1393C19.1814 23.1944 16.7054 25.6704 13.6503 25.6704C10.5952 25.6704 8.11914 23.1939 8.11914 20.1393Z" fill="#161615"/>
<path d="M23.5332 20.3404C23.5332 17.2858 26.0097 14.8092 29.0643 14.8092C32.1189 14.8092 34.5954 17.2853 34.5954 20.3404C34.5954 23.3955 32.1194 25.8715 29.0643 25.8715C26.0092 25.8715 23.5332 23.3955 23.5332 20.3404Z" fill="#161615"/>
<path d="M50.4086 12.8342C54.7586 12.8342 57.1489 15.4959 57.1489 19.6888C57.1489 24.3413 54.6361 27.1485 50.2948 27.1485H45.4336V12.8342H50.4086ZM48.3703 24.85H50.2642C52.7974 24.85 54.1316 22.9526 54.1316 19.7332C54.1316 17.073 52.9356 15.1694 50.2851 15.1694H48.3703V24.85ZM62.6173 12.8342V27.1485H59.6994V12.8342H62.6173ZM77.2989 27.1485H75.1525C75.053 26.6806 74.9744 26.022 74.9351 25.4867C74.1989 26.9153 72.7627 27.3577 70.9683 27.3577C67.2239 27.3577 65.2509 24.2408 65.2509 20.0725C65.2509 15.9041 67.5764 12.6439 71.7958 12.6439C75.2045 12.6439 76.9703 14.5475 77.3219 16.9408H74.4591C74.1918 16.0388 73.5688 14.9842 71.6275 14.9842C69.1356 14.9842 68.2494 17.3633 68.2494 20.0908C68.2494 22.8184 69.205 25.0357 71.6219 25.0357C73.7775 25.0357 74.4015 23.5327 74.4015 21.6949V21.6271H71.4111V19.1556H77.2984V27.1485H77.2989ZM83.0836 12.8342V27.1485H80.1657V12.8342H83.0836Z" fill="#1C5DAA"/>
<path d="M95.3964 20.9026H89.1735V24.7557H96.0439L95.6929 27.1485H86.3291V12.8342H95.6572V15.2455H89.1735V18.4888H95.3964V20.9026ZM101.509 27.1485V21.7536C101.509 21.5914 101.483 21.4429 101.386 21.2909L96.8567 12.8342H100.144C101.15 14.9898 102.465 17.7215 103.103 19.0551C104.041 17.0189 105.131 14.822 106.064 12.8342H109.105L104.544 21.2296C104.463 21.3659 104.427 21.4705 104.427 21.6694V27.1485H101.509ZM119.517 20.9026H113.294V24.7557H120.165L119.814 27.1485H110.45V12.8342H119.778V15.2455H113.294V18.4888H119.517V20.9026Z" fill="#161615"/>
<path d="M45.248 29.5159C45.5715 29.4674 45.9562 29.4307 46.3771 29.4307C47.1394 29.4307 47.6827 29.6072 48.0429 29.9429C48.4088 30.2791 48.6225 30.7546 48.6225 31.4199C48.6225 32.0853 48.4154 32.6398 48.0307 33.0184C47.646 33.4031 47.0113 33.6103 46.2123 33.6103C45.8338 33.6103 45.5169 33.5924 45.248 33.5618V29.5154V29.5159ZM45.7792 33.1531C45.9134 33.1776 46.1088 33.1837 46.3159 33.1837C47.4511 33.1837 48.0674 32.5485 48.0674 31.4383C48.0736 30.4684 47.5241 29.8521 46.4016 29.8521C46.1266 29.8521 45.9195 29.8761 45.7792 29.9067V33.1531Z" fill="#161615"/>
<path d="M49.8417 29.4613V33.5741H49.3105V29.4613H49.8417Z" fill="#161615"/>
<path d="M53.8984 33.3912C53.6606 33.4769 53.1913 33.6172 52.6356 33.6172C52.0132 33.6172 51.5004 33.4585 51.0974 33.0743C50.7433 32.7325 50.5244 32.183 50.5244 31.5427C50.5305 30.3162 51.3724 29.4187 52.7514 29.4187C53.2275 29.4187 53.5994 29.5228 53.777 29.608L53.6489 30.0412C53.429 29.9437 53.1545 29.8646 52.7397 29.8646C51.7387 29.8646 51.0856 30.4871 51.0856 31.5187C51.0856 32.5504 51.7142 33.1784 52.6724 33.1784C53.0198 33.1784 53.2581 33.1294 53.3805 33.0682V31.8422H52.5443V31.4151H53.8984V33.3917V33.3912Z" fill="#161615"/>
<path d="M55.2411 29.4613V33.5741H54.71V29.4613H55.2411Z" fill="#161615"/>
<path d="M56.9488 29.9133H55.6982V29.4618H58.7431V29.9133H57.4865V33.5745H56.9493V29.9133H56.9488Z" fill="#161615"/>
<path d="M59.414 32.2802L58.987 33.5741H58.4375L59.8349 29.4613H60.4753L61.8788 33.5741H61.3115L60.8717 32.2802H59.414ZM60.7625 31.8659L60.36 30.6817C60.2681 30.4133 60.2074 30.169 60.1462 29.9312H60.1344C60.0732 30.1756 60.0064 30.4256 59.9268 30.6756L59.5242 31.8659H60.763H60.7625Z" fill="#161615"/>
<path d="M62.4814 29.4613H63.0126V33.1281H64.7702V33.5741H62.4814V29.4613Z" fill="#161615"/>
<path d="M67.1909 29.9133H65.9404V29.4618H68.9853V29.9133H67.7287V33.5745H67.1915V29.9133H67.1909Z" fill="#161615"/>
<path d="M69.9735 29.4613V31.1817H71.9628V29.4613H72.4995V33.5741H71.9628V31.646H69.9735V33.5741H69.4424V29.4613H69.9735Z" fill="#161615"/>
<path d="M73.952 29.4613V33.5741H73.4209V29.4613H73.952Z" fill="#161615"/>
<path d="M74.8784 33.5741V29.4613H75.458L76.7764 31.5424C77.0815 32.0241 77.3193 32.4577 77.5142 32.8786L77.5269 32.872C77.4779 32.3235 77.4657 31.8225 77.4657 31.1817V29.4613H77.9657V33.5741H77.429L76.1223 31.4873C75.8361 31.0297 75.5611 30.5593 75.354 30.1144L75.3356 30.1205C75.3662 30.6394 75.379 31.1332 75.379 31.8169V33.5746H74.8779L74.8784 33.5741Z" fill="#161615"/>
<path d="M82.0224 33.3912C81.7847 33.4769 81.3153 33.6172 80.7597 33.6172C80.1367 33.6172 79.6245 33.4585 79.2214 33.0743C78.8678 32.7325 78.6484 32.183 78.6484 31.5427C78.6546 30.3162 79.4964 29.4187 80.8755 29.4187C81.3515 29.4187 81.7234 29.5228 81.901 29.608L81.7729 30.0412C81.553 29.9437 81.2785 29.8646 80.8637 29.8646C79.8627 29.8646 79.2097 30.4871 79.2097 31.5187C79.2097 32.5504 79.8382 33.1784 80.7964 33.1784C81.1438 33.1784 81.3821 33.1294 81.5035 33.0682V31.8422H80.6678V31.4151H82.0219V33.3917L82.0224 33.3912Z" fill="#161615"/>
<path d="M82.7606 32.9271C82.9984 33.074 83.3463 33.1954 83.7122 33.1954C84.2555 33.1954 84.5729 32.9092 84.5729 32.4939C84.5729 32.1092 84.353 31.8893 83.7979 31.676C83.1264 31.4378 82.7111 31.0903 82.7111 30.5102C82.7111 29.8694 83.2423 29.3939 84.0417 29.3939C84.4627 29.3939 84.7683 29.4913 84.9509 29.5949L84.805 30.0281C84.6708 29.9551 84.3958 29.8327 84.0239 29.8327C83.4627 29.8327 83.2489 30.1679 83.2489 30.449C83.2489 30.8337 83.4994 31.023 84.0667 31.2419C84.7627 31.5107 85.1162 31.8464 85.1162 32.4505C85.1162 33.0847 84.6469 33.6342 83.6764 33.6342C83.28 33.6342 82.8469 33.5179 82.627 33.372L82.7611 32.926L82.7606 32.9271Z" fill="#161615"/>
<path d="M87.1338 29.5102C87.3899 29.4679 87.7256 29.4311 88.1532 29.4311C88.6777 29.4311 89.0619 29.5526 89.3062 29.7725C89.5323 29.9679 89.6664 30.2669 89.6664 30.6332C89.6664 30.9995 89.5568 31.298 89.3491 31.5118C89.069 31.8107 88.6113 31.9628 88.0925 31.9628C87.9338 31.9628 87.7869 31.9566 87.6654 31.926V33.574H87.1343V29.5097L87.1338 29.5102ZM87.6649 31.4934C87.7807 31.524 87.9272 31.5357 88.1037 31.5357C88.7445 31.5357 89.1353 31.225 89.1353 30.6572C89.1353 30.0893 88.7506 29.8521 88.1649 29.8521C87.9333 29.8521 87.7557 29.8699 87.6649 29.8944V31.4929V31.4934Z" fill="#161615"/>
<path d="M90.3799 29.4613H90.911V33.1281H92.6687V33.5741H90.3799V29.4613Z" fill="#161615"/>
<path d="M93.9248 32.2802L93.4977 33.5741H92.9482L94.3457 29.4613H94.986L96.3896 33.5741H95.8222L95.3824 32.2802H93.9248ZM95.2732 31.8659L94.8707 30.6817C94.7789 30.4133 94.7181 30.169 94.6569 29.9312H94.6452C94.584 30.1756 94.5171 30.4256 94.4375 30.6756L94.035 31.8659H95.2738H95.2732Z" fill="#161615"/>
<path d="M97.3042 29.9133H96.0537V29.4618H99.0986V29.9133H97.842V33.5745H97.3047V29.9133H97.3042Z" fill="#161615"/>
<path d="M101.685 31.646H100.086V33.1286H101.867V33.5745H99.5547V29.4618H101.776V29.9067H100.086V31.2067H101.684V31.6465L101.685 31.646Z" fill="#161615"/>
<path d="M102.557 29.4613H104.772V29.9062H103.088V31.273H104.644V31.7128H103.088V33.5741H102.557V29.4613H102.557Z" fill="#161615"/>
<path d="M109.043 31.4755C109.043 32.8908 108.183 33.6413 107.133 33.6413C106.084 33.6413 105.284 32.799 105.284 31.5546C105.284 30.249 106.096 29.3949 107.194 29.3949C108.292 29.3949 109.043 30.2551 109.043 31.476V31.4755ZM105.852 31.5424C105.852 32.4209 106.328 33.2082 107.163 33.2082C107.999 33.2082 108.482 32.4332 108.482 31.499C108.482 30.6811 108.055 29.8271 107.17 29.8271C106.285 29.8271 105.852 30.6388 105.852 31.5418V31.5424Z" fill="#161615"/>
<path d="M109.731 29.5159C110 29.4613 110.385 29.4307 110.751 29.4307C111.318 29.4307 111.684 29.5342 111.941 29.7659C112.148 29.949 112.264 30.2296 112.264 30.547C112.264 31.0904 111.923 31.45 111.489 31.5965V31.6148C111.806 31.7245 111.996 32.0174 112.094 32.4444C112.228 33.0184 112.325 33.4148 112.411 33.5735H111.862C111.795 33.4572 111.703 33.1041 111.587 32.5914C111.464 32.0235 111.245 31.8103 110.763 31.7919H110.263V33.574H109.732V29.5159H109.731ZM110.263 31.3893H110.805C111.373 31.3893 111.733 31.0776 111.733 30.6082C111.733 30.0776 111.349 29.8449 110.788 29.8393C110.531 29.8393 110.348 29.8638 110.263 29.8883V31.3893H110.263Z" fill="#161615"/>
<path d="M116.48 31.7674C116.45 31.1945 116.413 30.5047 116.419 29.9919H116.401C116.26 30.4741 116.09 30.9863 115.882 31.5542L115.156 33.5496H114.753L114.088 31.5909C113.893 31.0113 113.728 30.4802 113.612 29.9924H113.6C113.588 30.5052 113.557 31.1945 113.521 31.8108L113.41 33.5741H112.904L113.191 29.4613H113.869L114.57 31.4506C114.741 31.9567 114.882 32.4082 114.985 32.8353H115.003C115.107 32.421 115.254 31.969 115.437 31.4506L116.169 29.4613H116.847L117.103 33.5741H116.584L116.48 31.7674Z" fill="#161615"/>
<path d="M120.049 31.646H118.451V33.1286H120.232V33.5745H117.919V29.4618H120.14V29.9067H118.45V31.2067H120.049V31.6465L120.049 31.646Z" fill="#161615"/>
</g>
<defs>
<clipPath id="clip0_5_252">
<rect width="120.918" height="40" fill="white"/>
</clipPath>
</defs>
</svg>
